<svg xmlns="http://www.w3.org/2000/svg" xmlns:xlink="http://www.w3.org/1999/xlink" width="570" height="480" viewBox="0 0 570 480"><defs><linearGradient id="a" x1="0.5" y1="1" x2="0.5" gradientUnits="objectBoundingBox"><stop offset="0" stop-color="gray" stop-opacity="0.251"/><stop offset="0.54" stop-color="gray" stop-opacity="0.122"/><stop offset="1" stop-color="gray" stop-opacity="0.102"/></linearGradient><linearGradient id="b" x1="-4.28" y1="0.935" x2="-4.28" y2="-0.076" xlink:href="#a"/><linearGradient id="c" x1="0.5" y1="1" x2="0.5" y2="0" xlink:href="#a"/><clipPath id="e"><rect width="570" height="480"/></clipPath></defs><g id="d" clip-path="url(#e)"><g transform="translate(1.303 80)"><path d="M376.247,222c-35.714.273-70.02-7.8-102.828-16.792s-65.347-19.094-100.359-23.217c-22.521-2.665-48.151-2.246-65.857,8.076-17.034,9.923-22.072,26.185-24.56,41.2-1.873,11.3-2.786,23.147,3.806,33.428,4.578,7.132,12.462,12.987,18.009,19.78,19.311,23.641,7.339,54.061-11.811,78.49-8.969,11.442-19.467,22.455-26.3,34.569s-9.681,25.8-2.922,37.652c6.7,11.755,21.976,20.219,38.4,25.968,33.362,11.679,72.261,13.981,110.146,14.723,83.855,1.635,167.927-3.351,251.767-8.333,31.03-1.842,62.2-3.7,92.607-8.656,16.888-2.751,34.286-6.778,46.308-15.445,15.263-11,18.513-28.83,7.571-41.559-18.357-21.345-67.128-25.075-80.251-48.216-7.223-12.739-.792-27.442,8.58-39.828,20.159-26.574,54.682-50.473,55.494-80.065.56-20.315-17.161-40.015-43.75-48.671-27.881-9.085-66.008-6.455-85.722,10.912C444.3,213.86,407.792,221.759,376.247,222Z" transform="translate(-47.983 -156.367)" fill="#536dfe" opacity="0.1"/><path d="M953.451,681.943s-6.2-4.093-12.351-1.186c0,0,1.893,3.649,9.676,3.3Z" transform="translate(-484.586 -403.875)" fill="#536dfe"/><path d="M963.043,684.56s1.888,7.187-2.842,12.078c0,0-2.847-2.963-.025-10.221Z" transform="translate(-493.416 -406.275)" fill="#536dfe"/><path d="M968.413,666.475s-.459-6.112-14.264-4.088c0,0-.061,3.947,4.785,5.814S966,668.494,968.413,666.475Z" transform="translate(-491.049 -395.09)" fill="#536dfe"/><path d="M980.118,670.81s5.834,1.873.631,14.819c0,0-3.846-.858-4.542-6.011S977.589,672.682,980.118,670.81Z" transform="translate(-501.906 -399.465)" fill="#536dfe"/><path d="M986.484,644.691s.792-10.059-13.315-9.024c0,0-1.009,9.085,10.826,11.447Z" transform="translate(-500.458 -382.022)" fill="#536dfe"/><path d="M1002.27,622.655s-1.933-11.4-16.03-8c0,0-.056,9.857,13.728,10.72Z" transform="translate(-506.943 -371.337)" fill="#536dfe"/><path d="M1014.651,599.624s-3.24-11.1-17.211-7.783c0,0,3.326,9.989,16.282,9.832Z" transform="translate(-512.49 -360.047)" fill="#536dfe"/><path d="M1028.016,576.594s-3.165-11.523-16.656-8.076c0,0,4.5,10.948,15.763,10.029Z" transform="translate(-519.384 -348.483)" fill="#536dfe"/><path d="M1037.9,552.36s-2.433-14.092-15.01-10.973c0,0,3.649,12.82,14.082,13.022Z" transform="translate(-525.095 -335.142)" fill="#536dfe"/><path d="M1045.016,526.861s-2.917-14.208-15.646-10.095c0,0,4.992,13.426,14.748,12.038Z" transform="translate(-528.304 -322.801)" fill="#536dfe"/><path d="M1050.965,499.662s-4.638-14.2-14.475-13.819c0,0,4.745,15.005,13.628,16.656Z" transform="translate(-531.83 -307.851)" fill="#536dfe"/><path d="M1055.407,474s-5.047-17.1-13.057-15.783c0,0,3.5,13.072,12.77,18.448Z" transform="translate(-534.733 -294.138)" fill="#536dfe"/><path d="M1057.618,446.739S1052.889,432.49,1045,431.92c0,0,3.215,14.021,12.457,18.518Z" transform="translate(-536.045 -281.149)" fill="#536dfe"/><path d="M1060.944,420.687s-5.9-14.264-11.1-14.587c0,0,2.564,14.047,10.6,16.929Z" transform="translate(-538.442 -268.361)" fill="#536dfe"/><path d="M1064.463,393.967s-3.624-15.5-8.843-16.777c0,0,.712,12.674,8.318,17.938Z" transform="translate(-541.305 -254.042)" fill="#536dfe"/><path d="M1069.11,364.378s-3.816-12.346-8.04-14.228c0,0,.838,14.556,7.066,17.252Z" transform="translate(-544.004 -240.65)" fill="#536dfe"/><path d="M1077.15,335.9l.772-21.774s-7.884,16.434-1.353,25.615Z" transform="translate(-550.398 -222.81)" fill="#536dfe"/><path d="M1089.334,297.927s5.683-15.9,7.066-16.787c0,0-11.154,10.317-10.064,23.586Z" transform="translate(-556.481 -206.471)" fill="#536dfe"/><path d="M998.1,653.448s10-1.312,9.7,12.83c0,0-9.039,1.469-11.987-10.221Z" transform="translate(-511.682 -390.85)" fill="#536dfe"/><path d="M1016.736,630.37s11.563-.035,10.6,14.435c0,0-9.7,1.731-12.906-11.7Z" transform="translate(-520.904 -379.436)" fill="#536dfe"/><path d="M1030.854,608.8s10.493-4.921,17.211,7.783c0,0-9.7,4.1-18.135-5.729Z" transform="translate(-528.581 -368.288)" fill="#536dfe"/><path d="M1043.953,584.284s10.746-5.234,17.055,7.172c0,0-11.19,3.856-17.938-5.209Z" transform="translate(-535.089 -356.068)" fill="#536dfe"/><path d="M1051.884,559.9s10.342-9.883,18.6.111c0,0-10.569,8.126-19.074,2.09Z" transform="translate(-539.22 -342.376)" fill="#536dfe"/><path d="M1058.848,532.559s10.407-10.094,18.594.464c0,0-11.679,8.293-18.963,1.656Z" transform="translate(-542.721 -328.837)" fill="#536dfe"/><path d="M1063.07,502.413s8.015-12.618,17.448-9.8c0,0-8.313,13.36-17.363,12.765Z" transform="translate(-544.995 -311.006)" fill="#536dfe"/><path d="M1067.547,476.2s8.076-15.894,15.712-13.123c0,0-5.82,12.214-15.919,15.8Z" transform="translate(-547.109 -296.422)" fill="#536dfe"/><path d="M1068.063,448.766s8.3-12.507,16.08-10.983c0,0-6.789,12.684-16.883,14.6Z" transform="translate(-547.07 -283.989)" fill="#536dfe"/><path d="M1070.1,420.522s6.435-14.031,11.669-14.132c0,0-3.094,13.935-11.235,16.515Z" transform="translate(-548.477 -268.504)" fill="#536dfe"/><path d="M1072.63,395.853s7.152-14.218,12.527-14.243c0,0-3.659,12.154-12.29,15.49Z" transform="translate(-549.729 -256.231)" fill="#536dfe"/><path d="M1074.76,367.223s5.35-11.76,9.781-13.093c0,0-2.675,14.334-9.191,16.212Z" transform="translate(-550.785 -242.621)" fill="#536dfe"/><path d="M1079.811,338.58l11.957-18.21s-3.064,17.968-13.7,21.7Z" transform="translate(-552.424 -225.901)" fill="#536dfe"/><path d="M1092.1,306.364s13.9-9.59,14.4-11.144c0,0-7.066,13.436-20.189,15.808Z" transform="translate(-556.505 -213.444)" fill="#536dfe"/><path d="M1099.054,293.718s15.954-15.334,20.028-15.318c0,0-13.158.6-20.411,14.506Z" transform="translate(-562.627 -205.114)" fill="#536dfe"/><path d="M1075.07,345.79l.58.076c3-23.47,7.369-37.35,12.31-39.051l-.192-.555C1082.53,308.077,1078.139,321.745,1075.07,345.79Z" transform="translate(-550.938 -218.912)" fill="#444053"/><path d="M1066.34,438.982l.878.076c.182-2.19.323-4.437.419-6.667.838-19.422,2.135-37.259,3.846-50.629l-.5-.631c-1.711,13.4-3.377,31.772-4.214,51.225C1066.673,434.565,1066.522,436.806,1066.34,438.982Z" transform="translate(-546.614 -255.993)" fill="#444053"/><path d="M932.649,600.331c.156-.066,15.616-6.97,31.661-23.439a127.406,127.406,0,0,0,23.142-32.807c7.414-15.106,11.937-33.67,13.456-51.7l-.919.429c-3.4,40.479-21.834,68.138-36.487,83.2-15.889,16.318-31.172,23.152-31.323,23.217Z" transform="translate(-480.168 -311.093)" fill="#444053"/><path d="M625.172,148.942V410.6c0,7.778-7.505,14.132-16.772,14.132H253.392c-9.267,0-16.772-6.329-16.772-14.132V148.942c0-7.793,7.505-15.742,16.772-15.742l354.988.863C617.647,134.063,625.172,141.175,625.172,148.942Z" transform="translate(-135.675 -133.2)" fill="#fff"/><path d="M625.172,149.023v12.113H236.62V149.023A15.823,15.823,0,0,1,252.458,133.2h356.9A15.823,15.823,0,0,1,625.172,149.023Z" transform="translate(-135.675 -133.2)" fill="#3f3d56"/><circle cx="5.592" cy="5.592" r="5.592" transform="translate(114.179 8.373)" fill="#fa5959" opacity="0.8"/><circle cx="5.592" cy="5.592" r="5.592" transform="translate(130.446 8.373)" fill="#fed253" opacity="0.8"/><circle cx="5.592" cy="5.592" r="5.592" transform="translate(146.714 8.373)" fill="#8ccf4d" opacity="0.8"/><g transform="translate(248.153 94.096)" opacity="0.2"><path d="M609.9,321.331V349.6c0,.843-1.58,1.514-3.533,1.514H531.813c-1.948,0-3.533-.681-3.533-1.514V321.331c0-.843,1.575-1.7,3.533-1.7h74.558C608.329,319.625,609.9,320.483,609.9,321.331Z" transform="translate(-528.28 -319.63)" fill="#536dfe"/></g><rect width="38.844" height="1.373" transform="translate(283.984 104.185)" fill="#536dfe"/><path d="M551.3,333.66a9.211,9.211,0,0,0-5.078,16.893v-.611a2.1,2.1,0,0,1,1.842-2.074,3.654,3.654,0,0,0,6.41,0,2.1,2.1,0,0,1,1.842,2.074v.651A9.211,9.211,0,0,0,551.3,333.66Zm3.614,11.679a3.649,3.649,0,0,1-7.283,0,4,4,0,0,1,2.095-5.355,1.242,1.242,0,0,1-.2-.661,1.216,1.216,0,0,1,1.221-1.216h.086a1.216,1.216,0,0,0-1.131,1.211,1.231,1.231,0,0,0,.161.606h.035a1.316,1.316,0,0,1,0-.242,1.186,1.186,0,0,1,.232-.707,1.211,1.211,0,0,1,1.161-.858h.086a1.206,1.206,0,0,0-.929.545,1.181,1.181,0,0,1,.671-.2,1.216,1.216,0,0,1,1.216,1.216,1.238,1.238,0,0,1,0,.136,4,4,0,0,1,2.968,3.866A4.073,4.073,0,0,1,554.909,345.339Z" transform="translate(-286.966 -232.483)" fill="#536dfe" opacity="0.2"/><rect width="38.844" height="1.373" transform="translate(283.984 107.527)" fill="#536dfe" opacity="0.2"/><rect width="38.844" height="1.373" transform="translate(283.984 110.868)" fill="#536dfe" opacity="0.2"/><rect width="38.844" height="1.373" transform="translate(283.984 114.214)" fill="#536dfe" opacity="0.2"/><g transform="translate(160.629 149.449)" opacity="0.2"><path d="M436.494,431v28.265c0,.838-1.575,1.514-3.533,1.514H358.4c-1.948,0-3.533-.686-3.533-1.514V431c0-.843,1.575-1.7,3.533-1.7h74.568C434.919,429.3,436.494,430.158,436.494,431Z" transform="translate(-354.87 -429.3)" fill="#536dfe"/></g><rect width="38.844" height="1.373" transform="translate(196.454 159.544)" fill="#536dfe"/><path d="M377.878,443.33a9.211,9.211,0,0,0-5.078,16.9v-.616a2.09,2.09,0,0,1,1.842-2.069,3.654,3.654,0,0,0,6.41,0,2.089,2.089,0,0,1,1.842,2.069v.656a9.211,9.211,0,0,0-5.017-16.939Zm3.609,11.679a3.649,3.649,0,0,1-7.283,0,4.013,4.013,0,0,1,2.1-5.355,1.207,1.207,0,0,1-.193-.656,1.221,1.221,0,0,1,1.216-1.221h.091a1.216,1.216,0,0,0-.974,1.817h.04a1.222,1.222,0,0,1,0-.237,1.787,1.787,0,0,1,1.393-1.57h.045a1.221,1.221,0,0,0-.929.545,1.206,1.206,0,0,1,.666-.2,1.221,1.221,0,0,1,1.221,1.221,1.238,1.238,0,0,1,0,.136,4,4,0,0,1,2.6,5.552Z" transform="translate(-201.073 -286.8)" fill="#536dfe" opacity="0.2"/><rect width="38.844" height="1.373" transform="translate(196.454 162.885)" fill="#536dfe" opacity="0.2"/><rect width="38.844" height="1.373" transform="translate(196.454 166.226)" fill="#536dfe" opacity="0.2"/><rect width="38.844" height="1.373" transform="translate(196.454 169.567)" fill="#536dfe" opacity="0.2"/><g transform="translate(140.506 59.815)" opacity="0.2"><path d="M396.614,253.411v28.265c0,.838-1.575,1.514-3.533,1.514H318.533c-1.943,0-3.533-.686-3.533-1.514V253.411c0-.843,1.58-1.7,3.533-1.7h74.558C395.039,251.71,396.614,252.568,396.614,253.411Z" transform="translate(-315 -251.71)" fill="#536dfe"/></g><rect width="38.844" height="1.373" transform="translate(176.321 69.909)" fill="#536dfe"/><rect width="38.844" height="1.373" transform="translate(176.321 73.251)" fill="#536dfe" opacity="0.2"/><rect width="38.844" height="1.373" transform="translate(176.321 76.592)" fill="#536dfe" opacity="0.2"/><rect width="38.844" height="1.373" transform="translate(176.321 79.933)" fill="#536dfe" opacity="0.2"/><path d="M338,265.74a9.216,9.216,0,0,0-5.047,16.9v-1.56A2.1,2.1,0,0,1,334.794,279a3.654,3.654,0,0,0,6.41,0,2.089,2.089,0,0,1,1.842,2.074v1.595A9.211,9.211,0,0,0,338,265.74Zm4.038,11.245a.621.621,0,0,1-.121.157.505.505,0,0,1-.267.091h-.187a3.659,3.659,0,0,1-7.162-1.04,3.6,3.6,0,0,1,.48-1.8l-.041-.025a1.216,1.216,0,0,1,.121-1.691,2.434,2.434,0,0,1,.757-.278,3.381,3.381,0,0,0,1.918-1.469,4.032,4.032,0,0,1,0,.555.813.813,0,0,1,1.156-.04,2.324,2.324,0,0,0,.328.373,1.009,1.009,0,0,0,.409.116l.919.116a1.757,1.757,0,0,1,1.045.379,1.656,1.656,0,0,1,.348.616,9.207,9.207,0,0,1,.6,1.943,3.114,3.114,0,0,1-.278,1.984Z" transform="translate(-181.343 -198.844)" fill="#536dfe" opacity="0.2"/><g transform="translate(268.524 193.531)" opacity="0.2"><path d="M650.269,518.335V546.6c0,.843-1.575,1.514-3.533,1.514H572.173c-1.948,0-3.533-.681-3.533-1.514V518.335c0-.843,1.575-1.7,3.533-1.7h74.573C648.694,516.614,650.269,517.467,650.269,518.335Z" transform="translate(-568.64 -516.639)" fill="#536dfe"/></g><rect width="38.844" height="1.373" transform="translate(304.354 203.596)" fill="#536dfe"/><rect width="38.844" height="1.373" transform="translate(304.354 206.937)" fill="#536dfe" opacity="0.2"/><rect width="38.844" height="1.373" transform="translate(304.354 210.284)" fill="#536dfe" opacity="0.2"/><rect width="38.844" height="1.373" transform="translate(304.354 213.625)" fill="#536dfe" opacity="0.2"/><path d="M591.656,530.62a9.211,9.211,0,0,0-5.078,16.893v-1.56a2.1,2.1,0,0,1,1.842-2.069,3.654,3.654,0,0,0,6.41,0,2.09,2.09,0,0,1,1.842,2.069v1.6a9.211,9.211,0,0,0-5.017-16.933Zm4.038,11.24a.565.565,0,0,1-.121.161.506.506,0,0,1-.268.091h-.192a3.654,3.654,0,1,1-6.678-2.836h-.04a1.216,1.216,0,0,1,.121-1.691,2.431,2.431,0,0,1,.757-.278,3.378,3.378,0,0,0,1.918-1.464,4.051,4.051,0,0,1,0,.555.813.813,0,0,1,1.156-.04,2.09,2.09,0,0,0,.328.368.965.965,0,0,0,.409.121l.919.116a1.726,1.726,0,0,1,1.045.378,1.656,1.656,0,0,1,.348.616,9.111,9.111,0,0,1,.6,1.943,3.1,3.1,0,0,1-.288,1.958Z" transform="translate(-306.955 -330.032)" fill="#536dfe" opacity="0.2"/><path d="M467.77,616.3,456.7,600.247s-.207-3.977-.934-4.906-.156-2.993-.156-2.993.777-1.136.106-1.242-.106-2.635-.106-2.635l-.05-4.038s.621-3.876.106-4.8a1.514,1.514,0,0,1,.05-1.651s.621-2.221,0-2.791-.469-4.038-.313-6.763-1.085-4.285-1.085-4.7-4.088-4.437-4.088-4.8-2.589-1.857-4.144-2.271-2.327-.722-2.276-.929-2.433-1.009-2.433-1.009-2.17-.156-3-1.237-3.356-1.4-3.432-1.408l-.045-.217-.045-.232c.192-.328.374-.666.54-1.01.05-.106.1-.207.141-.313a4.432,4.432,0,0,0,2.549-.792,3.457,3.457,0,0,0,1.237-2.478,5.467,5.467,0,0,0-.6-2.751c-.454-.929-1.121-1.893-.893-2.9.1-.434.363-.818.5-1.242a3.281,3.281,0,0,0-.373-2.448c-.389-.747-.934-1.408-1.373-2.135a8.287,8.287,0,0,1-1.09-3.028,4.665,4.665,0,0,0-.4-1.645,3.149,3.149,0,0,0-.909-.919,9.085,9.085,0,0,0-5.552-1.686,26.935,26.935,0,0,1-4.214.258,15.455,15.455,0,0,1-2.458-.641c-1.736-.5-3.74-.727-5.249.267s-2.115,2.948-3.139,4.477c-.908,1.348-2.231,2.483-2.922,3.917v-.086a4.976,4.976,0,0,0-.384,1.045,7.44,7.44,0,0,0,.227,3.422,2.382,2.382,0,0,0,.838,1.514,4.851,4.851,0,0,0,1.812.358c-.025.1-.05.2-.071.293a11.61,11.61,0,0,0-.257,2.458,11.831,11.831,0,0,0,8.449,11.341v.313a8.267,8.267,0,0,1-.05.888h0s-5.2-1.07-6.6-.343-4.144,1.287-4.543,1.7-1.449.106-2.382,2.524-1.035,4.906-2.221,6.057-1.812,1.913-1.867,2.741.156,1.009-.308,1.287-1.141,1.343-.934,1.756a1.464,1.464,0,0,1-.57,1.55,1.721,1.721,0,0,0-.722,1.549s-.313,1.136-1.035,1.393-1.191,1.963-1.191,1.963l-2.347,2.7-4.654-5.148a1.963,1.963,0,0,0-2.766-.141l-2.291,2.034a4.513,4.513,0,0,0-2.286,1.363,5.928,5.928,0,0,0-1.181,1.761l-1.252,1.125a3.17,3.17,0,0,0-.323,3.508l2.983,3.3v.03a5.214,5.214,0,0,0-2.882,1.171c-4.447,3.927-4.5,7.541-3.826,9.191s6.314,8,6.314,8a25.213,25.213,0,0,0,8,6.526h0l-.035.035c-.1.1-.187.207-.278.323l-.076.1a.715.715,0,0,0-.071.1l-.086.121-.066.1-.091.151-.056.1-.106.2s-.025.045-.035.066-.086.187-.126.283l-.045.106a.564.564,0,0,1-.081.2l-.045.136a.849.849,0,0,1-.066.2l-.045.146q-.03.106-.061.227a.68.68,0,0,1-.035.136c-.01.045-.056.247-.081.374a1.246,1.246,0,0,0,0,.146,2.278,2.278,0,0,0-.045.267.491.491,0,0,1-.025.187,1.216,1.216,0,0,0-.035.257,1.27,1.27,0,0,0,0,.2v.979c-.106,6.057.247,6.92.247,6.92a3.351,3.351,0,0,0,2.746,2.059,3.622,3.622,0,0,0,.888-.045c2.69-.469,9-1.549,11.23-1.136a19.209,19.209,0,0,0,5.577-.454l.464-.091.323,1.009,1.009-.283.868.5.55.313c1.009,3.462,5.168,2.281,5.168,2.281l.984.57,9.988.257a20.074,20.074,0,0,0,3.533,1.7,3.171,3.171,0,0,0,.5.111,22.4,22.4,0,0,0,2.781.051c.767,0,1.358-.051,1.358-.051s-.1-2.71-.247-5.749a81.462,81.462,0,0,0,9.252-.757c5.335-.939,7.571-5.789,8.378-8.378a23.665,23.665,0,0,1,.5,3.215,23.436,23.436,0,0,0,.828,2.786,9.307,9.307,0,0,0,1.141,2.069c3.932-1.343,1.549-3.356.722-4.235s.57-1.6.57-1.6,1.09-.727,1.009-1.4-.156-1.393,3.367-1.343S467.77,616.3,467.77,616.3Zm-54.652-32.969a24.023,24.023,0,0,0,.979,4.315,5.5,5.5,0,0,1,.116,1.7c-2.085-.167-4.255-.257-4.255-.257a.5.5,0,0,1,.111.268l-.328-.076-.479-.116,3.846-5.84Zm-7.611,12.113,3.609.575.3.045a12.887,12.887,0,0,0-.187,1.706c0,.05.081.116.2.192a5.418,5.418,0,0,0-.071.853c.061.288,1.746.9,3.684,1.418-.03.1-.055.2-.081.293h0c-1.711-.9-4.4-1.317-4.714-1.984s-9.469-3.871-9.469-3.871-.338-.177-.914-.454l2.413.454.661-.066a36.075,36.075,0,0,0,4.568.833Z" transform="translate(-205.545 -328.468)" fill="url(#a)"/><path d="M468.835,688.888s-1.439,8.671-8.722,9.953-31.6,1.009-31.6,1.009-13.9-2.019-18.927-13.744-8.262-16.419-3.952-16.621,27.548,7.848,28.88,7.949S470.117,659.6,468.835,688.888Z" transform="translate(-218.39 -398.807)" fill="#65617d"/><path d="M468.835,688.888s-1.439,8.671-8.722,9.953-31.6,1.009-31.6,1.009-13.9-2.019-18.927-13.744-8.262-16.419-3.952-16.621,27.548,7.848,28.88,7.949S470.117,659.6,468.835,688.888Z" transform="translate(-218.39 -398.807)" opacity="0.05"/><path d="M403.38,714.123a3.326,3.326,0,0,0,2.71,2.069,3.533,3.533,0,0,0,.878-.051c2.665-.459,8.924-1.514,11.129-1.125a19.245,19.245,0,0,0,5.552-.449c1.161-.217,2.019-.424,2.019-.424s-2.049-6.824-2.307-7.026-9.252-5.613-9.252-5.613L407,701h0a3.74,3.74,0,0,0-2.408,1.418,7.549,7.549,0,0,0-1.438,4.84C403.027,713.27,403.38,714.123,403.38,714.123Z" transform="translate(-218.141 -414.417)" fill="#3f3d56"/><path d="M403.388,714.123a3.326,3.326,0,0,0,2.71,2.069,29.105,29.105,0,0,1-1.928-2.816l.035-4.977a8.772,8.772,0,0,1,2.8-7.4h0s-3.745.257-3.846,6.259S403.388,714.123,403.388,714.123Z" transform="translate(-218.149 -414.417)" opacity="0.05"/><path d="M460.674,690.216l6.617-5.179L477.7,674.776l-2.821-.126c-.424.267-1.605,1.116-1.65,2.145-.05,1.252-2.811.086-4.25.8s-8.464,9.711-9.686,9.656-2.206-.626-2.715.247a.5.5,0,0,1-.04.055Z" transform="translate(-244.596 -401.367)" opacity="0.1"/><path d="M406,702.428l.717.328c5.047,2.155,11.23,6.667,11.694,7.49.283.5,3.881,2.685,6.657,4.32,1.161-.217,2.019-.424,2.019-.424s-2.049-6.824-2.307-7.026-9.247-5.613-9.247-5.613l-7.112-.5h0A3.74,3.74,0,0,0,406,702.428Z" transform="translate(-219.564 -414.417)" opacity="0.1"/><path d="M378.033,664.528c.666,1.64,6.259,7.949,6.259,7.949a24.43,24.43,0,0,0,8.58,6.773c5.047,2.155,11.235,6.667,11.695,7.49.3.5,4.305,2.938,7.127,4.6l.636.368,1.4.813.742.424s1.716-1.378,3.427-2.766,3.372-2.746,3.4-2.821c.05-.156.717-1.9.56-2.019-.081-.05-.429-.762-1.08-1.585a7.274,7.274,0,0,0-2.609-2.16,7.409,7.409,0,0,1-3.387-3.533s-.227-.161-.565-.378a6.865,6.865,0,0,0-2.307-1.01c-1.131-.141-3.23-2.448-3.23-2.448a6.324,6.324,0,0,1-2.019-2.1c-.54-1.126-8.495-6.561-9.231-7.066l19.3,12.361,4.618,2.963,6.617-5.178,10.412-10.261-3.437-.151c-5.047-.222-14.047-.565-15.182-.308a8.581,8.581,0,0,1-2.821.182,9.893,9.893,0,0,1-4.255-.777c-1.691-.893-4.366-1.312-4.674-1.973s-9.388-3.846-9.388-3.846-12.361-6.561-16.772-2.665S377.357,662.887,378.033,664.528Z" transform="translate(-205.558 -391.219)" fill="#65617d"/><path d="M457.31,585.159l1.59,5.284,2.049,11.9,7.541.5,2.185-3.624,2.175-3.609s1.358-4.81,2.337-9.464c.863-4.114,1.423-8.111.5-8.545-.833-.384-1.378-1.772-1.736-3.26-.045-.182-.086-.368-.121-.555a29.022,29.022,0,0,1-.5-3.826s-15.8-.823-13.6,5.693a10.289,10.289,0,0,1,.6,3.462,8.247,8.247,0,0,1-.051.883A7.384,7.384,0,0,1,457.31,585.159Z" transform="translate(-244.977 -349.503)" fill="#ee8e9e"/><path d="M450.8,594.19l.565,8.979,1.282,7.642,1.438,3.533,1.282,19.361s12.366,1.433,15.374,0a1.317,1.317,0,0,0,.545-.424c3.634-5.486,2.443-21.375,2.443-21.375l1.4-10.276L474.2,596.3l-2.231-.237-1.721-.182s-.389.474-.944,1.216c-1.514,2.019-4.32,5.956-4.134,7.606.257,2.256-.308,4.543-1.181,4.921s-1.59.979-1.741.363a2.776,2.776,0,0,1-.156-1.64,13.31,13.31,0,0,0-.666-3.533s-1.383-3.129-1.282-4.462-.151-2.872-.565-3.23-.974-.722-.5-2.362-2.019-4.835-2.019-4.835Z" transform="translate(-241.753 -359.407)" fill="#e3e8f4"/><path d="M483.148,610.954l.5,15.339,2.963,1.646a1.282,1.282,0,0,0,.545-.429c3.634-5.486,2.443-21.375,2.443-21.375l1.383-10.261-.924-5.325-2.231-.237c.863-4.114,1.428-8.106.5-8.54-.833-.389-1.383-1.771-1.736-3.26h0L485,589.357s.136.974.182,1.984a5.618,5.618,0,0,1-.131,1.913,6.38,6.38,0,0,0-.1,2.564c-.924,1.63-1.388,4.648-1.61,7.571C483.032,607.264,483.148,610.954,483.148,610.954Z" transform="translate(-257.763 -353.751)" opacity="0.1"/><path d="M486.918,578s2.584.323,3.4,1.4,2.978,1.231,2.978,1.231a11.759,11.759,0,0,1,2.408,1.01c-.055.187.722.5,2.261.924s4.1,1.9,4.1,2.261,4.038,4.356,4.038,4.77a10.279,10.279,0,0,1,1.075,4.669c-.151,2.72-.308,6.153.308,6.718s0,2.771,0,2.771a1.514,1.514,0,0,0-.05,1.64c.5.924-.106,4.77-.106,4.77l.055,4s-.565,2.524.1,2.614-.1,1.232-.1,1.232-.565,2.054.151,2.978.924,4.871.924,4.871l10.978,15.954s.151,2.922-3.336,2.872-3.437.666-3.331,1.333-.974,1.388-.974,1.388-1.388.717-.565,1.59,3.18,2.872-.717,4.2a9.277,9.277,0,0,1-1.131-2.049,23.894,23.894,0,0,1-.823-2.771s-.358-3.9-1.075-4.411-.616-2.978-.616-2.978,1.009-2.019-.409-2.821S484.2,625.808,484.2,625.808l-.5-15.339s-.358-11.336,1.8-15.142a6.379,6.379,0,0,1,.1-2.564c.358-.924-.051-3.9-.051-3.9Z" transform="translate(-258.035 -353.498)" fill="#3f3d56"/><path d="M445.054,589.635s-5.158-1.065-6.561-.348-4.1,1.282-4.512,1.7-1.438.1-2.362,2.524-1.009,4.871-2.206,6-1.8,1.9-1.847,2.715.156,1.009-.308,1.282-1.126,1.338-.924,1.746S437,614.689,437,614.689a23.934,23.934,0,0,0,.974,4.31c.469.873-.5,12.876-1.539,13.693s6.945.742,6.945.742.363-7.874.671-8.288-.207-8.823-.207-8.823-.051-7.182.616-9.085.591-8.207.591-8.207.591-3.785,1.307-4.669S445.054,589.635,445.054,589.635Z" transform="translate(-229.617 -358.965)" opacity="0.1"/><path d="M444.757,589.329s-5.158-1.06-6.561-.343-4.1,1.282-4.512,1.691-1.439.106-2.357,2.524-1.009,4.876-2.206,6-1.8,1.9-1.847,2.721.151,1.009-.308,1.282-1.131,1.333-.924,1.746,10.67,9.438,10.67,9.438a23.809,23.809,0,0,0,.974,4.305c.469.868-.5,12.876-1.539,13.7s6.925.742,6.925.742.358-7.874.666-8.282-.207-8.823-.207-8.823-.05-7.182.616-9.085.6-8.207.6-8.207.585-3.785,1.3-4.669S444.757,589.329,444.757,589.329Z" transform="translate(-229.472 -358.816)" fill="#3f3d56"/><path d="M461.873,575.68a10.288,10.288,0,0,1,.6,3.462,11.75,11.75,0,0,0,13.5-5.33,29.034,29.034,0,0,1-.5-3.826S459.667,569.164,461.873,575.68Z" transform="translate(-247.132 -349.513)" opacity="0.1"/><path d="M446.64,553.715a11.72,11.72,0,1,0,.252-2.443A11.72,11.72,0,0,0,446.64,553.715Z" transform="translate(-239.692 -335.653)" fill="#ee8e9e"/><path d="M421.6,619.11l-2.821.873a1.454,1.454,0,0,1-.565,1.514,1.711,1.711,0,0,0-.717,1.514s-.308,1.131-1.009,1.388-1.176,1.948-1.176,1.948l-2.362,2.721s-.873.717-.717,1.075-.924.459-.924.459l.565,9.135,4.871.919,3.028-.308,2.463-.919,2.155-1.287.974-2.524,4.305-6.561Z" transform="translate(-222.194 -373.859)" fill="#3f3d56"/><path d="M400.349,637.906s-6.259-9.029-10.927-4.154,1.9,12.769,3.437,12.512,8.878-.666,8.878-.666Z" transform="translate(-210.537 -380.396)" fill="#ee8e9e"/><path d="M447.14,551.289a1.424,1.424,0,0,1,.863.389c.394.419.414,1.161.934,1.423a1.09,1.09,0,0,0,.611.071c1.363-.2,2.15-1.736,3.462-2.16a3.534,3.534,0,0,1,2.3.2,1.746,1.746,0,0,1,.757.5c.439.57.131,1.4.333,2.09.283.954,1.418,1.332,2.408,1.454a4.179,4.179,0,0,1,2.751.939,2.524,2.524,0,0,1,.5,1.984,1.585,1.585,0,0,0,0,.737c.273.767,1.605.656,1.953.045.252-.439.177-.808.772-.929a2.524,2.524,0,0,1,1.257.217,9.14,9.14,0,0,0,3.25.5,11.75,11.75,0,1,0-22.127-7.44Z" transform="translate(-239.94 -335.67)" opacity="0.1"/><path d="M459.2,552.417a1.585,1.585,0,0,1,0-.737,2.524,2.524,0,0,0-.5-1.984,4.215,4.215,0,0,0-2.751-.939c-.984-.126-2.125-.5-2.408-1.454-.2-.686.106-1.514-.333-2.09a1.691,1.691,0,0,0-.757-.5,3.532,3.532,0,0,0-2.3-.2c-1.312.424-2.1,1.963-3.462,2.16a1.1,1.1,0,0,1-.611-.071c-.5-.262-.54-1.009-.934-1.423-.626-.661-1.807-.237-2.569-.727a2.337,2.337,0,0,1-.828-1.514,7.355,7.355,0,0,1-.227-3.4c.444-1.908,2.15-3.215,3.24-4.845,1.009-1.514,1.585-3.437,3.109-4.447s3.483-.777,5.2-.268a14.568,14.568,0,0,0,2.438.641,27.051,27.051,0,0,0,4.174-.252,8.942,8.942,0,0,1,5.512,1.676,3.029,3.029,0,0,1,.9.908,4.585,4.585,0,0,1,.4,1.635,8.3,8.3,0,0,0,1.08,3c.434.722.974,1.378,1.363,2.125a3.245,3.245,0,0,1,.368,2.428c-.131.424-.389.8-.5,1.236-.227,1.01.434,1.958.883,2.882a5.44,5.44,0,0,1,.6,2.736,3.452,3.452,0,0,1-1.231,2.458,4.4,4.4,0,0,1-2.6.787,9.253,9.253,0,0,1-3.316-.5,2.525,2.525,0,0,0-1.252-.217c-.6.121-.5.5-.777.929C460.8,553.073,459.472,553.184,459.2,552.417Z" transform="translate(-237.105 -329.495)" fill="#3f3d56"/><path d="M459.6,690.8l6.617-5.178,10.412-10.261-3.437-.151a2.241,2.241,0,0,0-.727,1.4c-.05,1.257-2.811.091-4.25.807s-8.464,9.711-9.686,9.65-2.206-.621-2.715.247l-.04.061a1.458,1.458,0,0,1-.782.464Z" transform="translate(-243.828 -401.644)" opacity="0.1"/><path d="M437.69,686.929l3.326,10.6.5,1.666,1.585-.434,3.493-.959,15.546-4.27a13.487,13.487,0,0,0,5.6-1.514,16.924,16.924,0,0,1,9.66-2.11c2.054.192,4.341-.691,6.238-4.2,0,0,4.305-12.719-6.561-16.358s-11.4,1.933-11.4,1.933l-.146.091c-.424.268-1.6,1.115-1.65,2.145-.05,1.252-2.811.086-4.25.8s-8.454,9.751-9.676,9.7-2.206-.626-2.715.247a.5.5,0,0,1-.04.056c-.379.5-1.514.646-2.276.666h-.712l-.1.03-.787.232Z" transform="translate(-235.26 -398.131)" fill="#65617d"/><path d="M439.4,657.982l1.6.257.666-6.617s-.732-.111-1.65-.323C440.258,652.219,439.7,655.792,439.4,657.982Z" transform="translate(-236.107 -389.802)" opacity="0.1"/><path d="M481.558,603.123s4.77-1.383,3.594,12.159a37.823,37.823,0,0,1-10,22.107s-10.16,4.462-14.723,3.745-7.889-.873-7.889-.873a11.673,11.673,0,0,0-4.618-1.231c-2.564-.1-7.949-1.691-8.076-2.206s1.337-8.05.722-8.616c0,0,7.182.293,7.9.813s1.741.146,2.524,0,3.129-2.2,7.8-.4a4.669,4.669,0,0,0,2.206-.257,2.211,2.211,0,0,1,1.605-.1,4.409,4.409,0,0,0,1.11-.565c.156-.2,1.388,0,1.388,0a.545.545,0,0,0,.767-.358,3.363,3.363,0,0,1,.717-1.126s1.388-7.8,4-10.72a1.676,1.676,0,0,0,.565-1.489C470.938,613.177,475.4,601.467,481.558,603.123Z" transform="translate(-236.322 -365.862)" opacity="0.1"/><path d="M448.85,701.8l6.773,8.2.045-.05c.05-.151.717-1.9.56-2.019s-1.332-2.67-3.695-3.745a7.031,7.031,0,0,1-2.9-2.64Z" transform="translate(-240.787 -414.69)" opacity="0.1"/><path d="M448.857,721.257l.742.424s1.716-1.378,3.427-2.766,3.372-2.746,3.4-2.821c.051-.156.717-1.9.56-2.019-.081-.05-.429-.762-1.08-1.585-4.593-1.287-1.666,1.9-1.277,2.049,0,0-5.592-1.282-5.9,4.8A7.265,7.265,0,0,0,448.857,721.257Z" transform="translate(-240.718 -419.957)" opacity="0.1"/><path d="M455.013,723.851l.979.565,9.9.257a20,20,0,0,0,3.5,1.686,3.249,3.249,0,0,0,.5.111,23.074,23.074,0,0,0,2.761.05c.757,0,1.343-.05,1.343-.05s-.469-12.487-.823-13.8c-.167-.631-1.01-.5-1.817-.177a11.721,11.721,0,0,0-1.772.9,31.565,31.565,0,0,0-4.876.767c-.671.363-2.564-.207-3.745,0s-3.281-1.388-3.281-1.388c-5.744-1.9-2.524,1.64-2.1,1.8,0,0-5.587-1.282-5.9,4.805S455.013,723.851,455.013,723.851Z" transform="translate(-241.196 -419.971)" fill="#3f3d56"/><path d="M488.605,719.04c.106,2.584,2.12,5.794,3.326,7.49.757,0,1.343-.05,1.343-.05s-.469-12.487-.823-13.8c-.167-.631-1.009-.5-1.817-.177C489.64,714.366,488.52,716.955,488.605,719.04Z" transform="translate(-260.475 -419.98)" fill="#565387"/><path d="M488.605,719.04c.106,2.584,2.12,5.794,3.326,7.49.757,0,1.343-.05,1.343-.05s-.469-12.487-.823-13.8c-.167-.631-1.009-.5-1.817-.177C489.64,714.366,488.52,716.955,488.605,719.04Z" transform="translate(-260.475 -419.98)" opacity="0.1"/><path d="M485.1,719.383c.681,2.493.671,5.295,1.756,6.985a3.241,3.241,0,0,0,.5.111,23.075,23.075,0,0,0,2.761.05c.757,0,1.343-.05,1.343-.05s-.469-12.487-.823-13.8c-.167-.631-1.009-.5-1.817-.177a11.716,11.716,0,0,0-1.772.9S484.223,716.188,485.1,719.383Z" transform="translate(-258.656 -419.98)" opacity="0.05"/><path d="M417.59,676.26a20.478,20.478,0,0,1,9.085,7.263Z" transform="translate(-225.305 -402.164)" opacity="0.1"/><g transform="translate(204.32 209.042)" opacity="0.1"><path d="M496.562,554.3l-.03.111a3.455,3.455,0,0,1-.172.429A3.031,3.031,0,0,1,496.562,554.3Z" transform="translate(-468.637 -550.802)"/><path d="M441.538,548.379a4.615,4.615,0,0,1,.379-1.009c-.025.086-.05.177-.071.268a7.359,7.359,0,0,0,.227,3.4,2.337,2.337,0,0,0,.828,1.514c.762.5,1.943.066,2.564.722.4.419.419,1.166.934,1.423a1.009,1.009,0,0,0,.616.071c1.363-.192,2.15-1.731,3.462-2.155a3.462,3.462,0,0,1,2.291.2,1.691,1.691,0,0,1,.762.5c.439.565.131,1.4.333,2.09.283.949,1.418,1.327,2.4,1.454a4.211,4.211,0,0,1,2.756.939,2.483,2.483,0,0,1,.5,1.984,1.631,1.631,0,0,0,0,.732c.273.772,1.605.656,1.953.05.252-.444.177-.808.772-.934a2.573,2.573,0,0,1,1.257.217,9.243,9.243,0,0,0,3.316.5,4.472,4.472,0,0,0,2.6-.787,3.106,3.106,0,0,0,.8-.974,3.281,3.281,0,0,1-1.105,1.741,4.4,4.4,0,0,1-2.6.787,9.238,9.238,0,0,1-3.316-.5,2.524,2.524,0,0,0-1.257-.217c-.6.121-.5.5-.772.929-.348.611-1.681.722-1.953-.045a1.65,1.65,0,0,1,0-.737,2.483,2.483,0,0,0-.5-1.984,4.228,4.228,0,0,0-2.756-.939c-.989-.126-2.12-.5-2.4-1.454-.2-.686.106-1.514-.333-2.09a1.691,1.691,0,0,0-.757-.5,3.533,3.533,0,0,0-2.3-.2c-1.312.424-2.1,1.963-3.462,2.16a1.111,1.111,0,0,1-.616-.071c-.5-.262-.535-1.009-.934-1.423-.621-.661-1.8-.237-2.564-.727a2.337,2.337,0,0,1-.828-1.514A7.354,7.354,0,0,1,441.538,548.379Z" transform="translate(-441.433 -547.37)"/></g><path d="M494.306,628.306c-.939,1.267-2.019,2.443-2.842,3.785a7.183,7.183,0,0,0-1.247,4.477,11.892,11.892,0,0,0,1.8-3.21,45.58,45.58,0,0,1,3.447-5.189c.222-.328,1.64-2.231.924-2.322C495.8,625.772,494.645,627.872,494.306,628.306Z" transform="translate(-261.27 -377.195)" opacity="0.1"/><path d="M391.7,589.261,401.986,608.7c.308.576-.53,1.62-1.868,2.332L348.8,638.174c-1.338.707-2.675.813-2.978.232l-10.281-19.437c-.308-.58.464-1.746,1.8-2.453l51.315-27.139C390,588.665,391.4,588.68,391.7,589.261Z" transform="translate(-184.636 -358.864)" fill="#fff"/><g transform="translate(150.841 229.97)" opacity="0.2"><path d="M391.7,589.261,401.986,608.7c.308.576-.53,1.62-1.868,2.332L348.8,638.174c-1.338.707-2.675.813-2.978.232l-10.281-19.437c-.308-.58.464-1.746,1.8-2.453l51.315-27.139C390,588.665,391.4,588.68,391.7,589.261Z" transform="translate(-335.477 -588.834)" fill="#536dfe"/></g><rect width="30.238" height="1.065" transform="translate(178.596 252.869) rotate(-27.87)" fill="#536dfe"/><rect width="30.238" height="1.065" transform="translate(179.814 255.173) rotate(-27.87)" fill="#536dfe" opacity="0.2"/><rect width="30.238" height="1.065" transform="translate(181.029 257.467) rotate(-27.87)" fill="#536dfe" opacity="0.2"/><rect width="30.238" height="1.065" transform="translate(182.246 259.771) rotate(-27.87)" fill="#536dfe" opacity="0.2"/><path d="M357.781,643.4a7.167,7.167,0,0,0,2.655,13.471l-.565-1.07a1.63,1.63,0,0,1,.5-2.1,2.842,2.842,0,0,0,4.411-2.332,1.635,1.635,0,0,1,2.019.757l.58,1.1a7.167,7.167,0,0,0-9.615-9.827Zm6.879,6.264a.382.382,0,0,1-.025.151.424.424,0,0,1-.151.162l-.126.071a2.847,2.847,0,1,1-5.633.5h-.035a.954.954,0,0,1-.53-1.211,1.821,1.821,0,0,1,.419-.464,2.63,2.63,0,0,0,.787-1.706,3.019,3.019,0,0,1,.187.389.636.636,0,0,1,.777-.449,2.137,2.137,0,0,0,.363.136.828.828,0,0,0,.328-.066l.671-.257a1.009,1.009,0,0,1,1.322.182,7.315,7.315,0,0,1,1.121,1.115A2.417,2.417,0,0,1,364.66,649.664Z" transform="translate(-193.791 -385.476)" fill="#536dfe" opacity="0.2"/><path d="M404.66,644.038c-.05,6.768,13.956,8.207,13.956,8.207l3.579.565,1.6.257.666-6.617s-.732-.111-1.65-.323c-1.353-.318-3.109-.863-3.478-1.63C418.716,643.215,404.71,637.264,404.66,644.038Z" transform="translate(-218.901 -384.629)" fill="#ee8e9e"/><path d="M481.3,601.068s4.77-1.383,3.594,12.159a37.824,37.824,0,0,1-10,22.107s-10.16,4.462-14.723,3.745-7.9-.873-7.9-.873a11.673,11.673,0,0,0-4.618-1.231c-2.564-.1-7.949-1.691-8.076-2.206s1.337-8.076.722-8.616c0,0,7.182.293,7.9.813s1.741.146,2.524,0,3.129-2.2,7.8-.4a4.667,4.667,0,0,0,2.206-.257,2.211,2.211,0,0,1,1.605-.1,4.411,4.411,0,0,0,1.11-.565c.156-.2,1.388,0,1.388,0a.54.54,0,0,0,.767-.358,3.411,3.411,0,0,1,.717-1.131s1.388-7.793,4-10.72a1.66,1.66,0,0,0,.565-1.484C470.679,611.122,475.145,599.443,481.3,601.068Z" transform="translate(-236.188 -364.847)" fill="#3f3d56"/><path d="M834.644,267.671v28.265c0,.843-1.575,1.514-3.533,1.514H756.533c-1.948,0-3.533-.681-3.533-1.514V267.671c0-.843,1.575-1.7,3.533-1.7h74.588C833.07,265.985,834.644,266.828,834.644,267.671Z" transform="translate(-391.425 -198.958)" fill="#fff"/><g transform="translate(352.853 72.155)" opacity="0.1"><path d="M817.349,277.861v28.265c0,.838-1.58,1.514-3.533,1.514H739.253c-1.948,0-3.533-.686-3.533-1.514V277.861c0-.843,1.575-1.7,3.533-1.7h74.573C815.769,276.16,817.349,277.018,817.349,277.861Z" transform="translate(-735.72 -276.16)" fill="#536dfe"/></g><path d="M834.644,267.671v28.265c0,.843-1.575,1.514-3.533,1.514H756.533c-1.948,0-3.533-.681-3.533-1.514V267.671c0-.843,1.575-1.7,3.533-1.7h74.588C833.07,265.985,834.644,266.828,834.644,267.671Z" transform="translate(-391.425 -198.958)" fill="#fff"/><g transform="translate(361.575 67.012)" opacity="0.2"><path d="M834.644,267.671v28.265c0,.843-1.575,1.514-3.533,1.514H756.533c-1.948,0-3.533-.681-3.533-1.514V267.671c0-.843,1.575-1.7,3.533-1.7h74.588C833.07,265.985,834.644,266.828,834.644,267.671Z" transform="translate(-753 -265.97)" fill="#536dfe"/></g><rect width="38.844" height="1.373" transform="translate(397.421 77.107)" fill="#536dfe"/><rect width="38.844" height="1.373" transform="translate(397.421 80.448)" fill="#536dfe" opacity="0.2"/><rect width="38.844" height="1.373" transform="translate(397.421 83.789)" fill="#536dfe" opacity="0.2"/><rect width="38.844" height="1.373" transform="translate(397.421 87.131)" fill="#536dfe" opacity="0.2"/><path d="M776.033,280a9.211,9.211,0,0,0-5.093,16.9v-1.56a2.1,2.1,0,0,1,1.842-2.074,3.654,3.654,0,0,0,6.41,0,2.1,2.1,0,0,1,1.842,2.074v1.6a9.211,9.211,0,0,0-5-16.939Zm4.038,11.24a.4.4,0,0,1-.389.247,1.15,1.15,0,0,1-.187,0,3.654,3.654,0,0,1-7.157-1.04,3.614,3.614,0,0,1,.474-1.8l-.04-.025a1.221,1.221,0,0,1,.121-1.691,2.479,2.479,0,0,1,.757-.278,3.356,3.356,0,0,0,1.918-1.464,3.441,3.441,0,0,1,0,.555.813.813,0,0,1,1.156-.04c.116.116.192.278.333.368a.874.874,0,0,0,.409.116l.914.121a1.292,1.292,0,0,1,1.393,1.009,8.839,8.839,0,0,1,.6,1.943,3.069,3.069,0,0,1-.293,1.978Z" transform="translate(-398.261 -205.906)" fill="#536dfe" opacity="0.2"/><path d="M850.574,516.9c-.7-2.524-1.151-4.734-1.151-4.734a9.841,9.841,0,0,0-1.292-4.8l-.025-.691h0l-.2-5.128a17.276,17.276,0,0,1,1.191-2.726c.858-1.64-.288-7.5-.288-7.5s-3.735-8.171-3.1-13.466-7.909-23.111-7.909-23.111a23.218,23.218,0,0,1,.54-5.189,4.126,4.126,0,0,0,.056-1.09,1.121,1.121,0,0,0,0-.131v.04c-.252-3.467-3.245-9.867-3.245-9.867l-.111-12.421s1.474-7.384-1.767-17.09c-1.131-3.387-1.873-6.107-2.357-8.207-.055-.237-.111-.464-.156-.686,5.85-1.121,10.312-2.019,10.312-2.019s-3.957-14.132-6.36-16.555-4.542-10.19-4.542-10.19-1.585-10.039.237-13.057,1.893-8.156,1.893-8.156,4.3-3.387,4.8-4.835a23.6,23.6,0,0,0,1.232-6.39c-.066-1.691-.676-3.195-.5-4.093s-1.459-4.235-.782-5.87a4.352,4.352,0,0,0,.237-1.56v-.066a21.767,21.767,0,0,0-.55-4.169,11.88,11.88,0,0,0-4.472-2.175l-.111-.379-.288-1.009c-.151-.091-.3-.172-.444-.242v-.363l-.1-1.449.565-3.286c1.146-5.719-6.45-6.274-6.45-6.274a3.947,3.947,0,0,0-2.211-1.792c-1.544-.5.071,8.535.808,9.085a34.484,34.484,0,0,1,3.16,4.543h0l.141.222a3.43,3.43,0,0,0-.333.379l.363,1.953.056.3a7.912,7.912,0,0,0-1.126,2.1,4.394,4.394,0,0,1,1.226,3.17,9.731,9.731,0,0,0,.611,3.907c-.086-.091-1.1-1.105-2.059-.808s-3.649,1.211-3.649,1.211-2.019.434-1.812.873-1.287,2.463-1.287,2.463l-5.653-4.956c-.061-.151-.121-.3-.177-.459a12.933,12.933,0,0,1-.56-2.246,12.278,12.278,0,0,0,1.721-.621,3.77,3.77,0,0,0,1.474-1.009,6.181,6.181,0,0,0,.787-2.382,33.143,33.143,0,0,1,1.847-4.588,14.672,14.672,0,0,0,.742-8.106,5.382,5.382,0,0,0-.929-2.337c-.939-1.191-2.569-1.63-3.78-2.559s-2.019-2.392-3.422-3.074a6.367,6.367,0,0,0-4.149-.2,22.142,22.142,0,0,0-7.621,3.1,3.9,3.9,0,0,1-2.524.949,3.44,3.44,0,0,1-1.913-1.3.424.424,0,0,1,0-.076l-.066-.066a9.636,9.636,0,0,0-.686,4.109,2.837,2.837,0,0,0,.05.651v.227a1.227,1.227,0,0,1,0,.192h0a1.158,1.158,0,0,1-.03.293,2.1,2.1,0,0,1-.5.752,4.539,4.539,0,0,0-.424.626.775.775,0,0,1,.066-.227,3.19,3.19,0,0,0-.5,1.741,1.716,1.716,0,0,0,.454,1.216,5.928,5.928,0,0,0,.919.681,9.86,9.86,0,0,0-.1,1.817,10.554,10.554,0,0,0,5.481,8.8c.071.151.136.3.207.459a13.065,13.065,0,0,1,1.216,5.905,3.094,3.094,0,0,1-.05.434c-.02.141-.131.156-.187.237h0s-9,.434-11.19-1.4-5.168,4.891-5.168,4.891-3.2.752-3.871.151-4.432.081-4.432.081a8.116,8.116,0,0,0-5.7-1.837,16.7,16.7,0,0,0-4.219-2.135h0l-.106-.03h0a4.633,4.633,0,0,0-2.019-.182s-4.568-3.488-5.936-5.4-7.793-8.959-7.823-8.994l-.035-.348-.111-1.06a3.815,3.815,0,0,1-.55.071l-.136-.363a19.439,19.439,0,0,0-1.423-2.948s-.05-1.343.328-1.691-.363-5.239-.363-5.239-4.346-9.171-7.652-2.069c0,0-6.561,4.765-.712,9.787,0,0,2.307,1.009,2.66,1.868.232.555,1.06,2.1,1.615,3.124.091.172.177.323.247.459l-.061.056.116.873.045.338c-1.04.646-1.741,1.277-1.55,1.726a9.752,9.752,0,0,1,.737,2.382s8.217,9.514,9.393,13.673c0,0,21.5,11.684,28.451,12.31l-.909,6.279a49.749,49.749,0,0,0-.081,5.1c.141,1.337-.545,7.44-.545,7.44s-.858,8.969-1.822,10.261-.581,6.632-.581,6.632a45.085,45.085,0,0,1-1.09,7.642,19.49,19.49,0,0,0,0,7.6s-3.195,8.166,4.987,2.4c0,0,4.108-.414,8.843-.757v.474c0,.611.03,1.272.05,1.968.111,4.6.328,10.942.722,15.732.7,8.464,3.927,25.12,3.927,25.12l.323,8.429a11.589,11.589,0,0,0-.146,2.418,15.647,15.647,0,0,0,2.574,8.373l.863,5.592a22.106,22.106,0,0,1,1.772,5.86,3.034,3.034,0,0,1-.045.54,3.735,3.735,0,0,0-.04.863c0,2.554,1.787,8.606,1.787,8.606s.328,6.153,1.262,6.476c.8.272-.913,3.589-1.428,4.543a1.8,1.8,0,0,1-.04-.177c-.066.126-.106.192-.106.192a4.385,4.385,0,0,0-.227,1.57,2.231,2.231,0,0,0,1.105,2.125c1.792,1.009,2.766,1.857,1.3,2.271a15.643,15.643,0,0,0-1.615.409c0-.071-.061-.141-.086-.207a1.01,1.01,0,0,0-.565,1.1,4.643,4.643,0,0,0,.631,2.069,22.42,22.42,0,0,0,2.675,4.457l.7-.106a3.669,3.669,0,0,1-.379.777,2.993,2.993,0,0,1-1.009.964,3.184,3.184,0,0,1-1.242.5,3.533,3.533,0,0,0-2.564,1.373c-.873,1.221-1.388,2.867.5,4.219l6.683,2.019s11.4,1.04,10.7-1.484-1.151-4.734-1.151-4.734a10.094,10.094,0,0,0-1.1-4.477,5.532,5.532,0,0,0-.424-.651l.4-.061s.611-5.653,1.676-6.768c.247-.252.3-.444.232-.59.1-.313-.192-.5-.57-.565a.808.808,0,0,1-.071.222,5.657,5.657,0,0,0-1.105-.081s-.5-2.927.676-4.038a1.13,1.13,0,0,0,.2-.883,4.781,4.781,0,0,0-.172-1.191.313.313,0,0,0-.035.071,43.775,43.775,0,0,0-2.917-6.819s-.192-2.675.5-3.77-.656-14.546-.656-14.546.03-6.526-.919-9.524.762-6.642.762-6.642a.942.942,0,0,0-.03-.2v-.045s-.055-.4-.146-1.009a.337.337,0,0,1,0,.066c-.247-1.716-.722-4.825-1.009-6.264-.449-2.019-.363-11.871-.363-11.871l1.514-4.26,3.23,7.117,3.508,9.519a8.225,8.225,0,0,1,1.746,4.038v.3a5.565,5.565,0,0,0,0,.646,5.743,5.743,0,0,0,1.085,3.392s1.009,4.543,2.342,5.633a5.141,5.141,0,0,1,1.423,3.341s1.822,6.561,2.6,7.677c.656.954.792,3.639.818,4.462h0v.242s.313,2.352.378,4.336v.656a7.18,7.18,0,0,1-.131,1.61c0,.03,0,.06,0,.1v-.333a16.964,16.964,0,0,0-.313,4.129c.05,2.377.5,5.173,2.019,6.768,2.6,2.761,4.154,2.342,4.154,2.342s-1.06,3.614-2.524,4.386a1.059,1.059,0,0,0-.156.106,1.433,1.433,0,0,0-.04-.2,1.726,1.726,0,0,0-.384,1.343,9.633,9.633,0,0,0,2.019,5.224,2.937,2.937,0,0,0,1.272.676,2.483,2.483,0,0,1-.222.156,4.766,4.766,0,0,1-.5.257,2.475,2.475,0,0,1-.747.222,3.558,3.558,0,0,0-2.564,1.373c-.868,1.221-1.388,2.862.5,4.22l6.683,2.019S851.3,519.426,850.574,516.9Z" transform="translate(-383.729 -216.984)" fill="url(#b)"/><path d="M868.513,726.593l-6.471-2.019c-1.812-1.358-1.312-3-.469-4.224a3.407,3.407,0,0,1,2.478-1.368,3.027,3.027,0,0,0,1.2-.5,2.825,2.825,0,0,0,.974-.964,4.724,4.724,0,0,0,.636-2.493s6.925-2.322,8.924-.343a5.393,5.393,0,0,1,.9,1.211,10.423,10.423,0,0,1,1.065,4.482s.444,2.211,1.12,4.734S868.513,726.593,868.513,726.593Z" transform="translate(-444.822 -420.795)" fill="#2d293d"/><path d="M930.154,718.013l-6.465-2.019c-1.817-1.353-1.317-3-.475-4.214a3.372,3.372,0,0,1,2.478-1.368,2.523,2.523,0,0,0,.722-.227,4.158,4.158,0,0,0,.5-.257c1.751-1.05,1.61-3.457,1.61-3.457s6.93-2.322,8.924-.343a4.932,4.932,0,0,1,.706.883,10.111,10.111,0,0,1,1.257,4.8s.444,2.221,1.12,4.739S930.154,718.013,930.154,718.013Z" transform="translate(-475.351 -416.561)" fill="#2d293d"/><path d="M881.1,714.715a5.388,5.388,0,0,1,.9,1.211h0l-10.458,1.62a4.724,4.724,0,0,0,.636-2.493S879.1,712.737,881.1,714.715Z" transform="translate(-450.135 -420.814)" opacity="0.1"/><path d="M942.02,706.99l.076,1.968c-1.514,2.756-9.448,2.468-11.8,1.206a4.161,4.161,0,0,0,.5-.257c1.751-1.05,1.61-3.457,1.61-3.457s6.93-2.322,8.924-.343A4.942,4.942,0,0,1,942.02,706.99Z" transform="translate(-479.237 -416.551)" opacity="0.1"/><path d="M899.374,589.927a17.315,17.315,0,0,0-1.146,2.726l.267,7.066c-1.671,3.028-10.988,2.392-12.3.833s-2.811-5.7-1.408-6.471,2.423-4.381,2.423-4.381-1.514.414-4.038-2.347-2.049-9.125-1.661-10.66-.257-6.607-.257-6.607-.045-3.573-.8-4.7-2.524-7.677-2.524-7.677a5.279,5.279,0,0,0-1.378-3.346c-1.292-1.115-2.271-5.633-2.271-5.633a5.855,5.855,0,0,1-1.04-3.8c.182-2.241-1.7-4.583-1.7-4.583l-3.407-9.519L865,523.7l-1.438,4.265s-.071,9.832.368,11.871,1.181,7.46,1.181,7.46-1.65,3.639-.727,6.642.9,9.529.9,9.529,1.317,13.441.646,14.541-.5,3.77-.5,3.77,3.962,7.712,2.842,8.828-.651,4.038-.651,4.038,2.524-.1,1.474,1.01-1.62,6.768-1.62,6.768l-10.741,1.666a22.376,22.376,0,0,1-2.594-4.462c-1.555-3.25.157-2.953,1.58-3.366s.5-1.267-1.257-2.276-.848-3.452-.848-3.452,2.418-4.472,1.514-4.795-1.232-6.476-1.232-6.476-2.064-7.248-1.7-9.231-1.686-6.637-1.686-6.637l-.838-5.6a15.465,15.465,0,0,1-2.372-10.544l-.313-8.686s-3.144-16.656-3.826-25.145c-.439-5.421-.661-12.83-.762-17.458-.056-2.594-.076-4.315-.076-4.315l38.394-5.5a32.061,32.061,0,0,0,.919,5.7c.474,2.1,1.2,4.82,2.3,8.207a37.678,37.678,0,0,1,1.731,17.1l.121,12.416s3.71,8.166,3.1,11.054a24,24,0,0,0-.5,5.2s8.282,17.822,7.682,23.116,3.028,13.471,3.028,13.471S900.207,588.286,899.374,589.927Z" transform="translate(-435.668 -308.007)" fill="#65617d"/><path d="M908.13,599.339,919.8,597.32S913.419,604.366,908.13,599.339Z" transform="translate(-468.257 -363.067)" opacity="0.05"/><path d="M925.113,574.74s.56,4.134-1.923,5.794C923.205,580.534,927.733,579.646,925.113,574.74Z" transform="translate(-475.716 -351.884)" opacity="0.1"/><path d="M911.219,548.63s-9.5,8.454-13.123,7.924S911.219,548.63,911.219,548.63Z" transform="translate(-463.033 -338.952)" opacity="0.1"/><path d="M872.249,610s-7.384,1.979-7.49,4.977S872.249,610,872.249,610Z" transform="translate(-446.776 -369.347)" opacity="0.1"/><path d="M877.874,683.55s-10.443,2.367-7.414,3.589a51.085,51.085,0,0,0,7.99,2.11S881.846,689.294,877.874,683.55Z" transform="translate(-449.327 -405.774)" opacity="0.05"/><g transform="translate(406.647 183.377)" opacity="0.05"><path d="M865.687,693.539a2.1,2.1,0,0,1-1.01-1.489c-.06.121-.1.192-.1.192s-.888,2.443.848,3.452c.2.116.389.227.565.338.313-.071.646-.126.969-.222C868.342,695.422,867.4,694.548,865.687,693.539Z" transform="translate(-853.221 -593.361)"/><path d="M893.289,690.787c.278-.278.242-.964.03-1.837a4.956,4.956,0,0,0-.5,2.6A2.071,2.071,0,0,1,893.289,690.787Z" transform="translate(-867.311 -591.826)"/><path d="M886.6,604.75a12.112,12.112,0,0,0-.585,3.311,12.872,12.872,0,0,1,.732-2.286S886.686,605.381,886.6,604.75Z" transform="translate(-863.948 -550.124)"/><path d="M934.421,592.669a3.969,3.969,0,0,0,.06-.979c-.106.671-.177,1.292-.222,1.837C934.31,593.25,934.361,592.962,934.421,592.669Z" transform="translate(-887.845 -543.655)"/><path d="M888.864,665.669a5.676,5.676,0,0,0,.187-1.989,6.717,6.717,0,0,0-.414,2.524A2.428,2.428,0,0,1,888.864,665.669Z" transform="translate(-865.248 -579.31)"/><path d="M879.8,700.8a35.123,35.123,0,0,0-1.009,5.552l-10.741,1.666a22.611,22.611,0,0,1-2.589-4.457c-.136-.288-.247-.545-.338-.777-.636.323-.863,1.01.061,2.932a22.407,22.407,0,0,0,2.594,4.457l10.741-1.666s.585-5.653,1.615-6.763C880.634,701.173,880.286,700.9,879.8,700.8Z" transform="translate(-853.329 -597.695)"/><path d="M853.9,584.145s.328,6.158,1.232,6.481h0c.414-1.035.676-2.019.272-2.155-.909-.323-1.232-6.481-1.232-6.481s-2.069-7.248-1.7-9.226-1.686-6.637-1.686-6.637l-.843-5.6a15.464,15.464,0,0,1-2.372-10.544l-.333-8.656s-3.144-16.656-3.826-25.145c-.439-5.421-.661-12.835-.762-17.458,0-.838-.03-1.58-.045-2.206l-.308.045s0,1.716.081,4.315c.1,4.623.323,12.038.757,17.458.687,8.464,3.831,25.145,3.831,25.145l.333,8.656a15.465,15.465,0,0,0,2.372,10.544l.838,5.6s2.059,4.653,1.686,6.637S853.9,584.145,853.9,584.145Z" transform="translate(-842.3 -496.52)"/><path d="M927.569,703.909a10.44,10.44,0,0,1-1.867-4.169c-1.065,1.009.348,4.845,1.595,6.324,1.312,1.56,10.63,2.185,12.3-.828l-.066-1.7C937.214,706.029,928.811,705.393,927.569,703.909Z" transform="translate(-883.421 -597.17)"/><path d="M954.756,686.931a17.3,17.3,0,0,0-1.146,2.726l.045,1.252c.187-.464.454-1.085.828-1.822a5.417,5.417,0,0,0,.3-2.226Z" transform="translate(-897.429 -590.791)"/><path d="M924.82,678.027a16.841,16.841,0,0,0,.8-2.155s-1.514.414-4.038-2.347c-1.832-2.019-2.084-5.931-1.933-8.5-.389,1.514-.858,7.9,1.661,10.66C922.967,677.487,924.178,677.931,924.82,678.027Z" transform="translate(-880.454 -579.974)"/><path d="M902.363,604.309a48.46,48.46,0,0,1,.384,5.28,6.507,6.507,0,0,1,.151-.833c.389-1.514-.257-6.6-.257-6.6s-.05-3.573-.808-4.709-2.524-7.677-2.524-7.677a5.248,5.248,0,0,0-1.383-3.341c-1.3-1.11-2.271-5.633-2.271-5.633a5.875,5.875,0,0,1-1.04-3.806c.182-2.241-1.7-4.578-1.7-4.578l-3.412-9.524-3.134-7.117-1.444,4.255v1.358l1.176-3.457,3.134,7.117,3.4,9.519s1.878,2.337,1.7,4.578a5.845,5.845,0,0,0,1.04,3.806s.974,4.542,2.271,5.633a5.2,5.2,0,0,1,1.378,3.341s1.772,6.561,2.524,7.677S902.363,604.309,902.363,604.309Z" transform="translate(-863.414 -525.865)"/></g><path d="M912.949,318.127l-.545,3.286.1,1.449.071,1.07-3.71.5-.449-.757h0a31.291,31.291,0,0,0-3.069-4.543c-.707-.55-2.286-9.565-.792-9.085a3.911,3.911,0,0,1,2.15,1.8S914.059,312.414,912.949,318.127Z" transform="translate(-466.176 -220.781)" fill="#ffcdd3"/><path d="M916.969,336.128l-3.71.5-.449-.757h0a3.291,3.291,0,0,1,4.088-.838Z" transform="translate(-470.575 -232.977)" opacity="0.1"/><path d="M917.75,338.221l-4.866,1.327-.131-.727-.353-1.958a3.379,3.379,0,0,1,4.729-.828l.283,1.009Z" transform="translate(-470.372 -233.34)" fill="#dce6f2"/><path d="M752.992,317.692l-5.133,3.028s-.217-.4-.5-.969c-.54-1.009-1.343-2.574-1.57-3.129-.343-.853-2.574-1.867-2.574-1.867-5.688-5.047.676-9.787.676-9.787,3.19-7.1,7.4,2.079,7.4,2.079s.727,4.891.358,5.239-.313,1.686-.313,1.686a19.834,19.834,0,0,1,1.378,2.953C752.9,317.389,752.992,317.692,752.992,317.692Z" transform="translate(-385.405 -216.939)" fill="#ffcdd3"/><path d="M759.378,332.081l-5.133,3.028s-.217-.4-.5-.969c.712-.646,3.255-2.877,4.119-2.811a6.657,6.657,0,0,0,1.242,0C759.282,331.778,759.378,332.081,759.378,332.081Z" transform="translate(-391.791 -231.327)" opacity="0.1"/><path d="M760.142,333.909l-5.779,3.129-.167-1.262-.116-.873s3.3-3.054,4.315-2.983a5.462,5.462,0,0,0,1.514-.061l.111,1.055Z" transform="translate(-391.96 -231.591)" fill="#dce6f2"/><path d="M874.145,350.664s-25.569,3.886-20.83,2.145c3.3-1.221,4.543-3.4,4.734-5.759a13.486,13.486,0,0,0-1.186-5.91,25.789,25.789,0,0,0-2.473-4.543s19.215-11.553,15.647-1.585a15.616,15.616,0,0,0-.934,4.694,13.123,13.123,0,0,0,.686,4.689A14.031,14.031,0,0,0,874.145,350.664Z" transform="translate(-440.818 -231.145)" fill="#ffcdd3"/><path d="M871.687,335.026a15.618,15.618,0,0,0-.934,4.694c-1.787,1.625-3.821,1.6-6.425,1.7-2.019.076-4.2.646-5.835-.257a25.789,25.789,0,0,0-2.473-4.543S875.235,325.063,871.687,335.026Z" transform="translate(-442.448 -231.154)" opacity="0.1"/><circle cx="10.63" cy="10.63" r="10.63" transform="translate(410.523 89.715)" fill="#ffcdd3"/><path d="M874.145,362.894s-25.569,3.886-20.83,2.145c3.3-1.221,4.543-3.4,4.734-5.759,1.227-1.439,3.755-2.524,5.385-3.129a7.666,7.666,0,0,1,4.649-.252,6.476,6.476,0,0,1,1.726.717A14.031,14.031,0,0,0,874.145,362.894Z" transform="translate(-440.818 -243.375)" opacity="0.1"/><path d="M918.1,339.7l-4.866,1.327-.131-.727a4.351,4.351,0,0,1,4.659-1.8Z" transform="translate(-470.718 -234.819)" opacity="0.1"/><path d="M760.256,334.969l-5.779,3.129-.167-1.262A42.776,42.776,0,0,1,760.155,334Z" transform="translate(-392.074 -232.651)" opacity="0.1"/><path d="M881.628,491.888c-9.883,1.953-23.959,4.543-26.246,3.942-1.888-.5-7.833-.207-13.007.172-.056-2.594-.076-4.315-.076-4.315l38.394-5.5A32.062,32.062,0,0,0,881.628,491.888Z" transform="translate(-435.653 -308.027)" opacity="0.1"/><path d="M846.448,414.119s-32.535,6.879-36.093,5.946-21.557.919-21.557.919c-7.909,5.754-4.83-2.408-4.83-2.408a19.7,19.7,0,0,1,0-7.6,46.653,46.653,0,0,0,1.045-7.636s-.384-5.345.55-6.632,1.751-10.256,1.751-10.256.656-6.1.5-7.44a48.566,48.566,0,0,1,.076-5.093l.909-6.289c-6.728-.636-27.553-12.346-27.553-12.346-1.146-4.154-9.085-13.678-9.085-13.678a10.24,10.24,0,0,0-.717-2.387c-.59-1.408,7.334-4.573,7.334-4.573s6.259,7.066,7.571,9,5.749,5.411,5.749,5.411a4.29,4.29,0,0,1,1.974.177l.1.03h0a15.981,15.981,0,0,1,4.083,2.14,7.753,7.753,0,0,1,5.522,1.842s3.639-.676,4.285-.076,3.75-.141,3.75-.141,2.867-6.728,4.992-4.886,10.836,1.413,10.836,1.413c1.1-1.585,3.881-2.8,5.628-3.437a7.667,7.667,0,0,1,4.648-.257,5.966,5.966,0,0,1,1.873.818l5.481,4.972s1.443-2.019,1.247-2.463,1.756-.868,1.756-.868,2.554-.9,3.533-1.211,1.908.727,1.994.813a10.326,10.326,0,0,1-.6-3.907,4.608,4.608,0,0,0-1.2-3.17c2.832-7.793,10.125-1.64,10.125-1.64s.969,4.164.313,5.8.909,4.966.762,5.865.449,2.4.5,4.093a24.752,24.752,0,0,1-1.181,6.39c-.479,1.448-4.644,4.825-4.644,4.825s-.071,5.1-1.832,8.116-.212,13.057-.212,13.057,2.09,7.783,4.416,10.2S846.448,414.119,846.448,414.119Z" transform="translate(-390.641 -232.973)" fill="#3f3d56"/><path d="M836.068,374.18s-1.1-2.907-2.019-3.139a21.424,21.424,0,0,1-2.63-1.06l.5-1.12s3.387.787,3.962,1.751S836.068,374.18,836.068,374.18Z" transform="translate(-430.264 -249.917)" opacity="0.1"/><path d="M796.676,365.735c-.146.9-8.076,2.019-8.076,2.019l3.861-4.184h0l.1.03h0A15.98,15.98,0,0,1,796.676,365.735Z" transform="translate(-409.057 -247.296)" opacity="0.1"/><circle cx="0.717" cy="0.717" r="0.717" transform="translate(363.453 106.356)" fill="#575988"/><circle cx="0.717" cy="0.717" r="0.717" transform="translate(364.422 107.749)" fill="#575988"/><circle cx="0.717" cy="0.717" r="0.717" transform="translate(365.366 109.031)" fill="#575988"/><circle cx="0.717" cy="0.717" r="0.717" transform="translate(366.355 110.424)" fill="#575988"/><circle cx="0.58" cy="0.58" r="0.58" transform="translate(450.609 107.244)" fill="#575988"/><circle cx="0.58" cy="0.58" r="0.58" transform="translate(450.75 108.556)" fill="#575988"/><circle cx="0.58" cy="0.58" r="0.58" transform="translate(450.876 109.869)" fill="#575988"/><path d="M842.56,427.31c-.086-.1,21.007,24.53,36.063,9.247C878.617,436.556,854.073,440.852,842.56,427.31Z" transform="translate(-435.781 -278.865)" opacity="0.1"/><path d="M820.67,454.359s12.053-.136,13.446,3.276l.136,3.6a2.3,2.3,0,0,1-2.241.086c-1.237-.606-8.656-4.038-11.154-2.145Z" transform="translate(-424.94 -292.262)" opacity="0.1"/><path d="M821.12,454.339s11.523-.131,12.855,3.124l.131,3.437a2.211,2.211,0,0,1-2.145.081c-1.181-.58-8.278-3.836-10.665-2.044Z" transform="translate(-425.163 -292.252)" fill="#656691"/><path d="M831.7,402.07a38.72,38.72,0,0,0,4.977,7.828,31.408,31.408,0,0,0,7.571,6.773S831.962,403.715,831.7,402.07Z" transform="translate(-430.403 -266.365)" opacity="0.1"/><path d="M822.83,374.66s2.342,8.58,7.631,11.336Z" transform="translate(-426.01 -252.789)" opacity="0.1"/><path d="M816.673,376.627c-.06-.162-1.514,6.925,7.066,10.478C823.755,387.105,820.116,386.025,816.673,376.627Z" transform="translate(-422.897 -253.762)" opacity="0.1"/><path d="M920.487,361.087c-.131,0,4.28,2.579,5.5,3.811C925.984,364.9,923.026,360.809,920.487,361.087Z" transform="translate(-474.376 -246.06)" opacity="0.1"/><path d="M856.867,327.53a1.671,1.671,0,0,0,1.893,1.59c3.245.076,6.622.091,9.59-1.272a3.613,3.613,0,0,0,1.418-1.009,6.039,6.039,0,0,0,.762-2.382,34.693,34.693,0,0,1,1.787-4.583,15.177,15.177,0,0,0,.717-8.141,5.42,5.42,0,0,0-.9-2.337c-.908-1.2-2.493-1.63-3.664-2.564s-1.963-2.4-3.316-3.079a6.066,6.066,0,0,0-4.038-.2,21.077,21.077,0,0,0-7.369,3.1,3.73,3.73,0,0,1-2.468.944,3.44,3.44,0,0,1-1.893-1.338,9.9,9.9,0,0,0-.616,4.659,2.019,2.019,0,0,1,0,.7,2.139,2.139,0,0,1-.469.752c-.762.959-1.206,2.448-.379,3.351.358.4.893.6,1.247,1.009.626.722.464,1.8.5,2.756a1.4,1.4,0,0,0,.273.934,1.378,1.378,0,0,0,1.322.262,3.569,3.569,0,0,1,1.388-.187,2.312,2.312,0,0,1,1.252.888A16.226,16.226,0,0,1,856.867,327.53Z" transform="translate(-438.218 -217.449)" fill="#2d293d"/><g transform="translate(409.268 88.685)" opacity="0.1"><path d="M870.083,335.229a3.619,3.619,0,0,1-1.423,1.009c-2.948,1.363-6.319,1.353-9.565,1.272a1.671,1.671,0,0,1-1.9-1.585,16.5,16.5,0,0,0-2.948-6.178A2.321,2.321,0,0,0,853,328.86a3.688,3.688,0,0,0-1.393.187,1.378,1.378,0,0,1-1.322-.262,1.428,1.428,0,0,1-.273-.934c0-.954.141-2.019-.5-2.756-.348-.4-.888-.606-1.247-1.009a2.1,2.1,0,0,1-.288-2.125,2.449,2.449,0,0,0-.04,2.852c.358.394.9.6,1.247,1.009.626.722.469,1.8.5,2.761a1.393,1.393,0,0,0,.272.929,1.363,1.363,0,0,0,1.322.262,3.675,3.675,0,0,1,1.393-.187,2.346,2.346,0,0,1,1.247.888,16.613,16.613,0,0,1,2.948,6.178,2.246,2.246,0,0,0,.883,1.4,2.276,2.276,0,0,0,1.009.187c3.245.076,6.622.086,9.59-1.277a3.659,3.659,0,0,0,1.423-1.009,2.888,2.888,0,0,0,.424-.878A1.465,1.465,0,0,1,870.083,335.229Z" transform="translate(-847.494 -315.373)"/><path d="M850.049,314.088a1.515,1.515,0,0,0,.3-.55,1.9,1.9,0,0,0,0-.7,9.89,9.89,0,0,1,.353-3.861l-.066-.071a9.914,9.914,0,0,0-.616,4.659A3,3,0,0,1,850.049,314.088Z" transform="translate(-848.718 -308.91)"/></g><path d="M862.82,363.422s13.335,1.252,14.45-.792" transform="translate(-445.816 -246.831)" opacity="0.1"/><path d="M913.5,351.352s7.369-.273,9.085,2.428" transform="translate(-470.916 -241.242)" opacity="0.1"/><path d="M118.209,303.581v28.265c0,.843-1.58,1.514-3.533,1.514H40.113c-1.948,0-3.533-.681-3.533-1.514V303.581c0-.843,1.575-1.7,3.533-1.7h74.573C116.629,301.88,118.209,302.738,118.209,303.581Z" transform="translate(-36.6 -216.743)" fill="#fff"/><g transform="translate(-0.02 85.137)" opacity="0.2"><path d="M118.209,303.581v28.265c0,.843-1.58,1.514-3.533,1.514H40.113c-1.948,0-3.533-.681-3.533-1.514V303.581c0-.843,1.575-1.7,3.533-1.7h74.573C116.629,301.88,118.209,302.738,118.209,303.581Z" transform="translate(-36.58 -301.88)" fill="#536dfe"/></g><rect width="38.844" height="1.373" transform="translate(35.81 95.232)" fill="#536dfe"/><path d="M59.6,315.92a9.211,9.211,0,0,0-5.078,16.893V332.2a2.09,2.09,0,0,1,1.842-2.069,3.654,3.654,0,0,0,6.41,0,2.09,2.09,0,0,1,1.842,2.069v.656A9.211,9.211,0,0,0,59.6,315.92ZM63.2,327.594a3.649,3.649,0,0,1-7.278,0,4,4,0,0,1,2.095-5.355,1.171,1.171,0,0,1-.2-.656,1.216,1.216,0,0,1,1.221-1.216h.086A1.216,1.216,0,0,0,58,321.583a1.166,1.166,0,0,0,.162.6H58.2a1.222,1.222,0,0,1,0-.237,1.789,1.789,0,0,1,1.393-1.565h.086a1.221,1.221,0,0,0-.929.545,1.216,1.216,0,0,1,1.888,1.009,1.236,1.236,0,0,1,0,.136,4,4,0,0,1,2.6,5.527Z" transform="translate(-43.439 -223.697)" fill="#536dfe" opacity="0.2"/><rect width="38.844" height="1.373" transform="translate(35.81 98.573)" fill="#536dfe" opacity="0.2"/><rect width="38.844" height="1.373" transform="translate(35.81 101.914)" fill="#536dfe" opacity="0.2"/><rect width="38.844" height="1.373" transform="translate(35.81 105.255)" fill="#536dfe" opacity="0.2"/><path d="M198.324,408.742a30.533,30.533,0,0,1-.5-4.648c0-1.868-2.524-3.533-2.524-3.533s-1.57-3.634-2.6-4.164-4.275-5.29-4.275-5.29a4.31,4.31,0,0,0-.974-2.564,36.729,36.729,0,0,1-2.645-3.992h0c-.434-.535-.217-.909-.868-4.008q-.056-.242-.121-.469a.7.7,0,0,0-.066-.2,5.239,5.239,0,0,0,1.232-5.421,2.226,2.226,0,0,0-.621-.959c-.737-.6-1.913-.353-2.67-.924l.8-3.563c.2-.868.3-1.979-.469-2.448a3.846,3.846,0,0,0-.9-.3,4.154,4.154,0,0,1-2.4-3.144,10.781,10.781,0,0,1-.262-3.937c.146-1.262.5-2.493.656-3.76a10.382,10.382,0,0,0-1.6-6.693,5.219,5.219,0,0,0-2.115-1.994,19.169,19.169,0,0,1-2.524-.888c-1.625-1.009-1.544-3.478-2.837-4.9s-3.589-1.4-5.476-.919-3.76,1.317-5.7,1.1c-1.247-.136-2.418-.7-3.664-.833a3.665,3.665,0,0,0-1.075.05l.025-.045a2.323,2.323,0,0,0-1.994,1.56,2.408,2.408,0,0,0-.061.636c0,.5.121,1.04.131,1.514a1.474,1.474,0,0,1-.353,1.075c-.247.267-.616.409-.858.681a1.11,1.11,0,0,0-.318.8c0,.777.969,1.459,1.62,1.772h0c-.177.177-.348.358-.5.545a11.467,11.467,0,0,0-2.842,7.637,11.634,11.634,0,0,0,7.066,10.655c-.03.1-.056.187-.091.283a14.994,14.994,0,0,1-.636,1.65,3.271,3.271,0,0,0-2.741.3,7.037,7.037,0,0,1-4.331.641c-.651-.161-7.414-1.009-7.954-.8s-1.625-.747-2.327.535-1.009,1.979-1.731,2.3-1.948,1.338-1.787,1.55-1.787,1.514-1.787,1.514-1.676,1.761-2.65,1.979a14.751,14.751,0,0,0-3.028,1.549l-2.382,1.868s-1.787.267-1.247-.959-.974-2.781-.974-2.781-3.028-6.142-3.028-7.419-2.488-6.678-2.488-6.678l-.308-.03c-.045-.131-.091-.262-.141-.4a37.673,37.673,0,0,0-1.514-3.79c-.858-1.761-1.413-1.963-1.413-1.963s-10.5-7.884-17.317-5.481,12.447,9.559,14.178,10.311a3.266,3.266,0,0,1,1.348,2.09,8.969,8.969,0,0,0-3.71,3.377s4.164,9.236,4.27,11.533,2.872,8.707,2.872,8.707,1.009,4.755,6.6,4.487c0,0,7.682,1.408,9.358,0s3.195-2.524,4.008-2.68a3.155,3.155,0,0,0,1.514-1.07s-2.524,16.02-3.785,17.413S120.53,424.6,124.477,427.8a79.136,79.136,0,0,0,9.9,6.561c.338.167,1.343-1.514,2.781-2.7v.924c.025,6.4.858,16.151,2.044,18.332,1.731,3.2,1.009,9.4,1.009,9.4a7.47,7.47,0,0,0,2.927.7c.05.207.111.424.172.651.954,3.6,2.5,9.176,3.286,10.66,1.2,2.246,2.059,9.348,2.059,9.348s.7,7,.434,7.96a46.483,46.483,0,0,0,1.07,6.955h0c-.439,5.007-1.262,14.662-1.4,18.17h0v.585h0a3.965,3.965,0,0,0,0,.656,2.054,2.054,0,0,1-.071,1.009,16.213,16.213,0,0,1-1.176,2.8,13.387,13.387,0,0,0-.5,1.358,2.445,2.445,0,0,0-1.262,1.792c-.54,2.085-1.353,7.854-1.353,7.854s-.323,3.533-.974,4.325-1.3,5.82,3.3,6.461a6.681,6.681,0,0,0,6.6-2.443l-.161-13.981h0a2.018,2.018,0,0,0,.237-.384v-.03c.03-.071.066-.136.1-.217s0-.066.04-.1.045-.111.066-.172a.284.284,0,0,1,0-.061,9.186,9.186,0,0,0,.389-4.164v-.288a.649.649,0,0,0,0-.1.97.97,0,0,1,0-.121v-.086a.917.917,0,0,1,.03-.283.185.185,0,0,1,0-.055v-.167a.385.385,0,0,0,0-.076,1.215,1.215,0,0,1,.035-.177v-.04c.04-.207.1-.414.151-.631v-.045l.061-.212h0c.071-.227.146-.449.222-.671v-.045l.076-.207v-.025c.076-.212.156-.419.237-.616v-.055l.076-.177v-.05l.167-.394h0l1.277,3.942s.7,2.938.323,3.629.434,3.583.974,3.634l-.5,3.634a55.558,55.558,0,0,0-.5,6.057c-.035.227-.071.424-.1.575a12.967,12.967,0,0,0,.5,4.744c4.275,5.047,9.363.394,9.363.394s.6-2.675,0-3.2-.323-2.458-.323-2.458.268-4.755.323-8.227-2.842-6.526-2.842-6.526l-.162.146c-.5-1.358-1.126-2.948-1.009-3.659.217-1.226-.6-14.2-.6-14.2a77.464,77.464,0,0,0,.187-10.438h0c.071-.591.136-1.171.2-1.731.328-2.791.591-5.178.7-6.425h0v-.146c.025-.338.04-.575.035-.691,0-.414,0-.934.04-1.479.106-1.514.338-3.17.338-3.17l1.136-6.89a21.375,21.375,0,0,1,2.11-5.234l.146-.237h0c.05-.081.1-.172.151-.267v-.04l.151-.288v-.04c.177-.343.363-.742.555-1.176l.045-.1.146-.333.056-.131.146-.333c0-.045.035-.086.056-.131.056-.136.111-.273.172-.409l.081-.2c.045-.1.086-.2.126-.308l.111-.262.076-.2.121-.3c0-.045.04-.091.056-.136.308-.772.611-1.514.873-2.231h0c.086-.217.167-.424.242-.626,2.771.172,4.654.328,4.654.328a64.6,64.6,0,0,0,.6-10.362,38.179,38.179,0,0,1,.681-8.293c.04-.217.076-.409.106-.58l.076.061c1.358,1.065,2.327-2.458,2.327-2.458s-.363-3.3-.853-7.278a3.584,3.584,0,0,0-.05-.4,20.952,20.952,0,0,0,2.367.363s.434-.04,1.009-.116a28.677,28.677,0,0,0,5.138,2.3l2.867-5.34a21.774,21.774,0,0,1,1.893-3.149c.868-1.07,3.952-4.487,3.9-5.128a17.517,17.517,0,0,1,2.11-5.981A14.317,14.317,0,0,0,198.324,408.742Zm-12.012,4.038c-1.136.479-2.221,3.149-2.271,3.952s-1.247,4.325-2.493,4.754a16.716,16.716,0,0,0-3.679,2.726c-.358.035-.762.081-1.186.151a41.261,41.261,0,0,0-1.247-6.723c-.863-1.605.954-6.728.954-6.728s.182-5.178,1.317-6.41.868-4.326.868-4.326.267-1.282.379-1.867,1.61,0,1.62,0h0s2.922,1.6,3.356,4,3.624,6.561,3.624,6.561-.5,1.438,0,2.19-.1,1.257-1.237,1.736Z" transform="translate(-65.389 -235.491)" fill="url(#c)"/><path d="M121.15,389.95a8.727,8.727,0,0,1,8.742-4.1v6.238h-3.77l-2.988-.772Z" transform="translate(-78.485 -258.283)" fill="#4c4981"/><path d="M121.15,389.95a8.727,8.727,0,0,1,8.742-4.1v6.238h-3.77l-2.988-.772Z" transform="translate(-78.485 -258.283)" opacity="0.1"/><path d="M117.346,375.743,112.708,379s-.04-.656-.156-1.544c-.232-1.681-.752-4.2-1.873-4.694-1.706-.747-20.694-7.889-13.961-10.286s17.055,5.466,17.055,5.466.535.182,1.383,1.943c.449.924,1.009,2.5,1.484,3.78C117.048,374.824,117.346,375.743,117.346,375.743Z" transform="translate(-65.672 -246.528)" fill="#ae6e79"/><path d="M174.637,265.692l.525-.252,1.484,1.691-1.211,2.584-2.064-.828.479-2.064Z" transform="translate(-85.876 -131.466)" fill="#4c4981"/><path d="M194.037,699.067s-1.332-.156-1.867,1.918-1.332,7.838-1.332,7.838-.318,3.533-.959,4.315-1.277,5.809,3.25,6.45a6.556,6.556,0,0,0,6.506-2.438l-.162-13.981Z" transform="translate(-112.302 -413.459)" fill="#444053"/><path d="M223,700.32s2.852,3.028,2.8,6.511-.323,8.212-.323,8.212-.262,1.918.323,2.453,0,3.195,0,3.195-5.012,4.654-9.221-.389a13.675,13.675,0,0,1-.5-4.74c.318-1.857,1.277-10.221,1.277-10.221Z" transform="translate(-125.465 -414.08)" fill="#444053"/><path d="M218,571.113s-2.882,8.076-4.108,9.913a21.016,21.016,0,0,0-2.074,5.229l-1.12,6.879a37.723,37.723,0,0,0-.373,4.638c.05,1.544-2.771,24.09-2.771,24.09l-4.477,5.7s-1.973,4-1.656,5.653a8.365,8.365,0,0,1-.853,5.113s-.106,5.224-.268,6.4.591,4.477,0,5.047-8.419.318-8.636-.641.964-5.6.964-5.6l.691-4.477s1.383-2.453,1.065-3.25.585-2.665.641-2.827,1.514-2.771,1.226-3.78,1.65-22.5,1.65-22.5l5.491-38.541Z" transform="translate(-113.396 -348.63)" fill="#ae6e79"/><path d="M218.005,571.122s-.434,1.211-1.04,2.806a53.489,53.489,0,0,1-3.069,7.106,21.577,21.577,0,0,0-2.079,5.224l-1.115,6.879a37.714,37.714,0,0,0-.374,4.633c0,.611-.409,4.507-.934,8.989-.808,6.859-1.837,15.106-1.837,15.106l-4.482,5.7s-.227.459-.5,1.126c-.56,1.307-1.353,3.432-1.141,4.542a8.382,8.382,0,0,1-.853,5.118s-.106,5.229-.267,6.395.591,4.482,0,5.047-8.419.323-8.636-.641.959-5.592.959-5.592l.7-4.482s1.383-2.453,1.065-3.25.585-2.665.641-2.826,1.514-2.771,1.226-3.785c-.207-.772.858-13.4,1.373-19.381.167-1.888.278-3.109.278-3.109l4.724-33.155.379-2.675.389-2.71Z" transform="translate(-113.401 -348.64)" opacity="0.1"/><path d="M211.686,653.906c.05.585-7.515,1.438-8.58.8s0-8.58,0-8.58l.5-3.624c-.535-.056-1.332-2.932-.959-3.629s-.323-3.624-.323-3.624l-1.257-3.937-.767-2.4c-1.242-2.751-3.028-10.6-4.169-16.454a47.14,47.14,0,0,1-1.055-6.95c.268-.959-.429-7.939-.429-7.939s-.848-7.066-2.019-9.327c-.777-1.484-2.3-7.066-3.24-10.645-.479-1.842-.813-3.165-.813-3.165s8.076-.676,12.941-.914c2.251-.106,3.826-.121,3.639.066a6.58,6.58,0,0,0-.217,2.569c0,3.659.53,10.094,1.07,11.821.747,2.4,1.514,9.59,1.171,10.286s-.212,5.33-.212,5.33a23.939,23.939,0,0,1,.934,5.789,78.123,78.123,0,0,1-.187,10.417s.8,12.951.585,14.178,1.706,5.047,1.706,5.809.485,5.809.485,5.809S211.636,653.321,211.686,653.906Z" transform="translate(-111.882 -351.238)" fill="#ae6e79"/><path d="M223.087,402.213l-.919,1.009-.6.641-3.493,3.71-9.009,1.009-4.785-1.282-1.186-.313s0-2.408.217-5.294c.3-3.7,1.035-8.2,2.771-9.418a6.885,6.885,0,0,0,2.019-2.569,14.384,14.384,0,0,0,.873-2.155c.035-.1.061-.187.091-.278a23.616,23.616,0,0,0,.848-3.957s1.151-.636,2.746-1.378c4.174-1.948,11.382-4.633,8.873,1.378a22.672,22.672,0,0,0-.939,2.705c-.04.131-.076.268-.106.4-.838,3.351-.283,5.38.343,6.5h0a4.548,4.548,0,0,0,.363.55,2.775,2.775,0,0,0,.606.616l1.04,6.587.086.545Z" transform="translate(-119.073 -255.247)" fill="#ae6e79"/><path d="M227.318,384c-.474,1.141.232-.934,0,0-1.9,1.353-6.375,5.2-8.893,5.2a7.015,7.015,0,0,1-3.664-.964A23.671,23.671,0,0,0,215.7,384S230.78,375.684,227.318,384Z" transform="translate(-124.848 -255.585)" opacity="0.1"/><path d="M224.437,362.369a11.609,11.609,0,0,1-10.4,11.553,10.784,10.784,0,0,1-1.216.066,11.609,11.609,0,1,1,11.609-11.609Z" transform="translate(-118.137 -240.957)" fill="#ae6e79"/><path d="M222.294,447.579l-1.65,4.32s-1.353.061-3.452.126c-7.066.227-22.713.5-23.414-1.3a4.376,4.376,0,0,1-.242-1.433,27.944,27.944,0,0,1,1.2-7.041s.747-8.53.747-8.9-.641-6.37-.641-6.37l1.277-4.795,3.573-2.524s1.6,2.453,2.559,2.665a6.706,6.706,0,0,1,2.241,1.388s3.139,1.918,4.154.848,8.9-5.754,8.9-5.754l4.159,4.583Z" transform="translate(-114.333 -274.655)" opacity="0.1"/><path d="M222.294,448.849l-1.65,4.32s-1.353.061-3.452.121h-.207l-3.064.081c-5.633.126-13.4.162-17.453-.429-1.514-.222-2.524-.5-2.69-.959a3.533,3.533,0,0,1-.192-.792,6.354,6.354,0,0,1-.05-.641,28.234,28.234,0,0,1,1.2-7.066s.747-8.53.747-8.9-.641-6.344-.641-6.344l1.277-4.795,2.458-1.721,1.115-.782a16.113,16.113,0,0,0,1.227,1.61,3.21,3.21,0,0,0,1.332,1.05,6.791,6.791,0,0,1,2.241,1.388s3.139,1.923,4.154.853c.777-.818,5.552-3.75,7.783-5.088l1.12-.671.56.621,3.6,3.967Z" transform="translate(-114.333 -275.284)" fill="#fff"/><path d="M134.295,387.169l-4.638,3.255s-.04-.656-.156-1.544a9.386,9.386,0,0,0,4.088-3.79C134,386.251,134.295,387.169,134.295,387.169Z" transform="translate(-82.621 -257.955)" opacity="0.1"/><path d="M146.467,398.624l-1.009-.262s-1.655,1.756-2.614,1.968a14.218,14.218,0,0,0-2.983,1.549l-2.347,1.862s-1.761.267-1.226-.959-.959-2.771-.959-2.771-2.983-6.132-2.983-7.409-2.453-6.662-2.453-6.662-3.094,6.021-8.742,4.1c0,0,4.1,9.221,4.209,11.513s2.826,8.691,2.826,8.691a6.007,6.007,0,0,0,6.5,4.477s7.571,1.408,9.221,0,3.144-2.524,3.947-2.675a3.124,3.124,0,0,0,1.489-1.065v-6.339Z" transform="translate(-78.485 -258.376)" fill="#3f3d56"/><path d="M152.51,423s1.332,4.956.5,5.491Z" transform="translate(-94.017 -276.731)" opacity="0.1"/><path d="M217.2,483.2c-7.066.227-22.713.5-23.414-1.3a4.376,4.376,0,0,1-.242-1.433l23.162,1.221Z" transform="translate(-114.338 -305.194)" opacity="0.1"/><path d="M216.442,571.122s-.434,1.211-1.035,2.806c-2.943-.182-6.839-.368-10.539-.394-1.312,0-2.594,0-3.8.04a28.464,28.464,0,0,0-6.213.691,16.394,16.394,0,0,1-5.552.712c-.479-1.842-.813-3.165-.813-3.165s8.076-.676,12.941-.914l.389-2.71Z" transform="translate(-111.837 -348.64)" opacity="0.1"/><path d="M217.529,508.754l-.9,1.918s-.126.57-.288,1.479a38.7,38.7,0,0,0-.676,8.277,64.789,64.789,0,0,1-.585,10.337s-19.614-1.65-25.367,0-8.58,0-8.58,0,.691-6.183-1.009-9.378c-1.171-2.19-1.989-11.911-2.019-18.3,0-2.953.146-5.189.5-5.638,1.171-1.444,6.183-15.833,6.183-15.833l1.141.061,3.028.162,17.357.914,2.72.141.288.883Z" transform="translate(-106.691 -305.764)" fill="#65617d"/><path d="M265.47,515.271l.161,1.706s-8.58-2.8-8.156-6.233,0-3.028,0-3.028l6.9.586Z" transform="translate(-145.996 -318.681)" fill="#4c4981"/><path d="M265.47,515.271l.161,1.706s-8.58-2.8-8.156-6.233,0-3.028,0-3.028l6.9.586Z" transform="translate(-145.996 -318.681)" opacity="0.1"/><path d="M162.572,424.388a7.657,7.657,0,0,0,3.028,1.575,1.969,1.969,0,0,1-.893-.419c-.616-.439-1.2-.914-1.792-1.378a5.262,5.262,0,0,0-1.666-1.146A9.189,9.189,0,0,0,162.572,424.388Z" transform="translate(-98.346 -276.741)" opacity="0.1"/><path d="M161.79,428.092a3.711,3.711,0,0,1,.661,1.055,4.239,4.239,0,0,1,.192,1.363,4.3,4.3,0,0,1-.237,1.933l-1.4-3.316c-.237-.565-.5-1.131-.767-1.676-.126-.232-.919-1.191-.828-1.393C159.675,425.478,161.533,427.774,161.79,428.092Z" transform="translate(-97.432 -278.199)" opacity="0.1"/><path d="M234.871,465.476a4.462,4.462,0,0,0,2.524-1.166c-1.418.177-2.756.732-4.154,1.009a6.173,6.173,0,0,1-3.871-.353A9.309,9.309,0,0,0,234.871,465.476Z" transform="translate(-132.084 -297.19)" opacity="0.1"/><path d="M225.52,443.15a.954.954,0,0,1-.722-.182q-1.595-.908-3.149-1.908a19.1,19.1,0,0,1-3.079-2.13C220.685,440.843,222.653,442.458,225.52,443.15Z" transform="translate(-126.735 -284.62)" opacity="0.1"/><path d="M235.352,468.659a6.771,6.771,0,0,0,1.661-.131,2.246,2.246,0,0,0,1.368-.9.772.772,0,0,0-.58.091,9.8,9.8,0,0,1-5.35.641A7.785,7.785,0,0,0,235.352,468.659Z" transform="translate(-133.609 -298.824)" opacity="0.1"/><path d="M204.856,518.284a17.11,17.11,0,0,1-3.407.671,20.928,20.928,0,0,1-2.7-.05l-4.366-.278-2.185-.141c-.257,0-1.312,0-.792-.5.262-.247,1.721-.091,2.095-.1.727,0,1.449-.035,2.17-.04,1.443,0,2.892,0,4.336.091Q202.444,518.027,204.856,518.284Z" transform="translate(-113.213 -323.703)" opacity="0.1"/><path d="M198.379,522.609a18.34,18.34,0,0,0-2.458.5,16.181,16.181,0,0,1-2.569.106,14.455,14.455,0,0,1-4.961-1.009C191.726,522.377,195.052,522.477,198.379,522.609Z" transform="translate(-111.788 -325.867)" opacity="0.1"/><path d="M188.174,527.4a7.842,7.842,0,0,1,.954.258c1.837.53,3.8.066,5.648-.394a3.344,3.344,0,0,1-2.145,1.191,10.1,10.1,0,0,1-4.184.151c-.439-.086-1.514-.242-1.756-.7C186.357,527.235,187.765,527.331,188.174,527.4Z" transform="translate(-110.921 -328.368)" opacity="0.1"/><path d="M207.441,533.387a15.473,15.473,0,0,1,1.63.424c2.069.5,4.219-.192,6.3-.666a29.14,29.14,0,0,1,7.626-.707,7.477,7.477,0,0,0-1.635.54c-.591.177-1.186.338-1.782.5a35.887,35.887,0,0,1-3.563.7,36.5,36.5,0,0,1-7.308.318c-1.115-.061-3.028.056-4.008-.5A4.432,4.432,0,0,1,207.441,533.387Z" transform="translate(-119.866 -330.921)" opacity="0.1"/><path d="M195.063,401.614s.106,4.911-.7,7.147c-.247.7-.641,1.984-1.065,3.427-.469,1.6-.979,3.392-1.373,4.78s-.651,2.347-.651,2.347-1.8,14.667-2.271,21.653v.363c-.025.394-.071.8-.131,1.226-1.04,6.94-7.026,17.64-9.035,18.5a6.057,6.057,0,0,0-1.691,1.161c0-2.953.146-5.189.5-5.638,1.171-1.444,6.183-15.833,6.183-15.833l1.141.061a6.343,6.343,0,0,1-.05-.641,28.236,28.236,0,0,1,1.2-7.066s.747-8.53.747-8.9-.641-6.344-.641-6.344l1.277-4.795,2.458-1.721c.3-3.7,1.035-8.2,2.771-9.418a6.885,6.885,0,0,0,2.019-2.569c.348.045-.283-.257-.283-.257Z" transform="translate(-106.716 -264.889)" opacity="0.1"/><path d="M182.9,398.475a3.19,3.19,0,0,0-2.7.308,6.863,6.863,0,0,1-4.265.636c-.641-.161-7.3-1.009-7.833-.8s-1.6-.747-2.291.53-1.009,1.973-1.706,2.3-1.923,1.332-1.761,1.544-1.756,1.514-1.756,1.514l3.886,12.618s-2.524,15.99-3.73,17.373-12.113,19.351-8.207,22.551a78.7,78.7,0,0,0,9.751,6.561c.429.212,1.973-2.665,4.108-3.573s8.742-12.926,9.176-19.73,2.291-22.016,2.291-22.016,2.291-8.318,3.094-10.554.671-7.152.671-7.152Z" transform="translate(-93.613 -264.5)" fill="#3f3d56"/><path d="M245.075,471.623l-.9,1.918s-.126.57-.288,1.479a.837.837,0,0,1-.459-.2c-1.332-1.07-9.171-9.115-9.539-16.262-.278-5.269-.146-9.807-.061-11.831.03-.636.05-1.009.056-1.105,0,0,6.057-7.359,5.38-9.968s-2.291-16.58-2.291-16.58l-.237-1.832-.4-3.094-.954-7.5,1.009.232a2.778,2.778,0,0,0,.606.616l1.04,6.587,3.6,3.967.585,24.146-1.65,4.32s-1.353.061-3.452.121H236.9Z" transform="translate(-134.237 -268.633)" opacity="0.1"/><path d="M249.062,431.428s-1.514-.585-1.6,0-.374,1.862-.374,1.862.262,3.094-.853,4.32-1.3,6.395-1.3,6.395-1.792,5.118-.944,6.718a43.512,43.512,0,0,1,1.267,6.975c.3,2.175.606,4.573.878,6.758.5,3.982.843,7.268.843,7.268s-.959,3.533-2.291,2.453-9.171-9.125-9.544-16.257c-.262-5.022-.156-9.378-.071-11.528.04-.914.071-1.428.071-1.428s6.057-7.354,5.385-9.963-2.291-16.58-2.291-16.58l-.283-2.155-.3-2.322-.066-.5-.964-7.44h0c.172.035,6.153,1.388,6.94,2.175s5.648,1.918,5.648,1.918a4.275,4.275,0,0,1,3.028,3.109c.045.146.081.3.116.464.641,3.094.429,3.462.858,4S249.062,431.428,249.062,431.428Z" transform="translate(-134.863 -268.311)" fill="#3f3d56"/><path d="M251.844,515.188c-2.191-.424-5.416-1.438-5.345-3.659.071-2.084,2.574-2.831,4.467-3.1C251.294,510.605,251.571,513,251.844,515.188Z" transform="translate(-140.567 -319.042)" opacity="0.1"/><path d="M258.934,513.642c-.086.187-.449.348-.929.5a24.353,24.353,0,0,1-3.533.575s-7.409-.585-7.3-3.942c.076-2.413,3.422-3.028,5.3-3.195.737-.066,1.252-.055,1.252-.055S259.257,512.95,258.934,513.642Z" transform="translate(-140.899 -318.596)" fill="#ae6e79"/><path d="M263.734,513.642c-.086.187-.449.348-.929.5-1.933-2.584-4.628-5.9-5.946-6.193,0,0,.151-.146.4-.368.737-.066,1.252-.056,1.252-.056S264.057,512.95,263.734,513.642Z" transform="translate(-145.699 -318.596)" opacity="0.1"/><path d="M262.194,428.5l2.185.318a37.576,37.576,0,0,0,2.614,4,4.346,4.346,0,0,1,.959,2.559s3.2,4.744,4.209,5.279,2.559,4.159,2.559,4.159,2.524,1.65,2.524,3.533a30.783,30.783,0,0,0,.479,4.633,13.2,13.2,0,0,1-1.443,5.224,17.891,17.891,0,0,0-2.074,5.971c.056.641-2.988,4.038-3.841,5.118a21.535,21.535,0,0,0-1.862,3.144l-2.826,5.33s-5.971-8.792-8.156-9.272c0,0,2.453-2.347,3.679-2.771s2.4-3.947,2.453-4.744,1.115-3.467,2.236-3.947,1.706-.959,1.227-1.706,0-2.185,0-2.185-3.144-4.159-3.573-6.561-3.3-4-3.3-4l-1.655-4.038Z" transform="translate(-146.026 -279.455)" fill="#3f3d56"/><path d="M280.523,466.32a6.91,6.91,0,0,1,4.305-1.63,5.251,5.251,0,0,0-2.816,1.1,6.429,6.429,0,0,0-.777,1.009c-.257.363-2.312,2.978-2.64,2.569C278.105,468.743,280.109,466.674,280.523,466.32Z" transform="translate(-156.426 -297.379)" opacity="0.1"/><path d="M272.93,454.58a1.837,1.837,0,0,0,1.514-1.075,6.058,6.058,0,0,0,.474-1.893,28.05,28.05,0,0,1,.661-3.235,2.06,2.06,0,0,0,.106-.676,1.912,1.912,0,0,0-.2-.651,4.644,4.644,0,0,0-.464-.969,5.92,5.92,0,0,0-.671,2.019q-.293,1.09-.56,2.18C273.707,450.663,272.965,454.58,272.93,454.58Z" transform="translate(-153.658 -288.162)" opacity="0.1"/><path d="M238.3,385.958a4.755,4.755,0,0,1-.737.757c-.853.691-2.019,1.277-2.14,2.367a2.609,2.609,0,0,1-.126,1.055c-.278.474-.964.439-1.514.343a2.666,2.666,0,0,1-1.277-.469c-.57-.5-.626-1.363-1.06-1.973a2.7,2.7,0,0,0-2.16-.969c-.818-.025-1.63.156-2.443.2a6.769,6.769,0,0,1-1.565-.106c-.172-.03-.338-.066-.5-.106a6.617,6.617,0,0,1-1.065-.363,5.381,5.381,0,0,1-.5-.242,6.858,6.858,0,0,1-1.514-1.045,3.741,3.741,0,0,1-1.393-2.831,17.386,17.386,0,0,1,.454-1.938c.328-1.883-.924-3.664-2.281-5.012-.54-.53-1.115-1.055-1.655-1.6a7.984,7.984,0,0,1-1.953-2.776,8.459,8.459,0,0,1-.348-3.473,23.614,23.614,0,0,0,.106-3.578c-.4-4.24-4.038-7.485-7.642-9.257l-.156-.081a11.609,11.609,0,1,1,15.646,17c-.04.131-.076.267-.106.4-.838,3.351-.283,5.38.343,6.5h0c.172.035,6.153,1.388,6.94,2.175s5.648,1.918,5.648,1.918a4.275,4.275,0,0,1,3.008,3.109Z" transform="translate(-120.916 -241.056)" opacity="0.1"/><path d="M204.92,346.587c.237-.273.6-.414.843-.681.752-.818,0-2.155.278-3.235.3-1.2,1.767-1.726,3-1.595s2.382.691,3.609.828c1.908.217,3.755-.611,5.618-1.1s4.108-.5,5.4.914,1.191,3.856,2.786,4.891a20.621,20.621,0,0,0,2.463.883,5.108,5.108,0,0,1,2.085,1.994,10.443,10.443,0,0,1,1.57,6.678c-.131,1.262-.5,2.493-.646,3.755a10.953,10.953,0,0,0,.257,3.927,4.152,4.152,0,0,0,2.372,3.139,3.726,3.726,0,0,1,.883.3c.752.464.656,1.575.464,2.438l-.808,3.558c.747.57,1.9.323,2.63.924a2.135,2.135,0,0,1,.611.959,5.244,5.244,0,0,1-1.565,5.724c-.853.7-2.019,1.277-2.14,2.372a2.524,2.524,0,0,1-.126,1.05c-.278.474-.964.439-1.514.343a2.615,2.615,0,0,1-1.272-.469c-.575-.5-.626-1.363-1.06-1.973a2.7,2.7,0,0,0-2.16-.969c-.823-.025-1.63.156-2.448.2a7.2,7.2,0,0,1-5.153-1.862,3.735,3.735,0,0,1-1.4-2.826,18.678,18.678,0,0,1,.454-1.943c.328-1.878-.924-3.664-2.276-5.007s-2.948-2.589-3.609-4.381c-.828-2.221,0-4.694-.247-7.066-.4-4.24-4.038-7.485-7.636-9.252C205.354,348.707,203.981,347.652,204.92,346.587Z" transform="translate(-119.818 -235.875)" fill="#444053"/><path d="M233.422,383.764c-.57-.5-.621-1.358-1.055-1.973a2.715,2.715,0,0,0-2.165-.964c-.818-.025-1.625.156-2.443.2a7.228,7.228,0,0,1-5.153-1.837,3.755,3.755,0,0,1-1.4-2.832,18.6,18.6,0,0,1,.454-1.938c.328-1.883-.924-3.664-2.281-5.012s-2.943-2.589-3.609-4.381c-.823-2.216,0-4.694-.242-7.066-.4-4.24-4.038-7.49-7.642-9.257-.843-.414-2.216-1.464-1.277-2.524.237-.273.6-.409.843-.676.752-.818,0-2.16.278-3.24a1.71,1.71,0,0,1,.273-.591,2.307,2.307,0,0,0-1.963,1.549c-.267,1.08.474,2.423-.278,3.24-.242.268-.606.4-.843.676-.939,1.07.434,2.12,1.282,2.524,3.619,1.772,7.233,5.017,7.636,9.257.222,2.352-.58,4.83.247,7.066.661,1.792,2.251,3.028,3.609,4.381s2.6,3.129,2.276,5.012a18.892,18.892,0,0,0-.454,1.938,3.755,3.755,0,0,0,1.4,2.831,7.2,7.2,0,0,0,5.153,1.862c.818-.04,1.625-.222,2.448-.2a2.705,2.705,0,0,1,2.16.964c.434.616.5,1.489,1.06,1.973a2.614,2.614,0,0,0,1.272.469c.545.1,1.232.136,1.514-.343a1.191,1.191,0,0,0,.121-.626A2.453,2.453,0,0,1,233.422,383.764Z" transform="translate(-119.818 -236.45)" opacity="0.1"/></g></g></svg>